<svg width="1280" height="99" viewBox="0 0 1280 99" fill="none" xmlns="http://www.w3.org/2000/svg">
<path d="M1396.14 -24.596C1399.95 -29.4023 1399.78 -29.4023 1392.99 -29.7338C1386.03 -30.0653 1379.07 -28.5736 1371.94 -29.7338C1365.14 -29.7338 1358.18 -29.8995 1351.39 -29.8995C1351.39 -30.231 1351.39 -30.5624 1351.39 -30.8939C1357.02 -31.3911 1362.82 -32.0541 1368.46 -32.5513C1367.46 -33.5457 1366.64 -34.0429 1365.97 -34.0429C1351.89 -33.7114 1337.8 -34.2086 1323.71 -33.8772C1317.74 -33.8772 1311.94 -33.7114 1305.98 -33.8772C1307.63 -34.3744 1309.29 -34.3744 1311.28 -34.5401C1308.79 -38.0205 1304.32 -39.6779 1299.02 -40.6723C1299.18 -40.6723 1299.18 -40.6723 1299.35 -40.6723C1299.18 -40.6723 1298.85 -40.6723 1298.52 -40.838C1298.02 -41.0038 1297.36 -41.0038 1296.86 -41.1695C1297.52 -41.3353 1299.35 -41.1695 1300.18 -41.1695C1304.48 -40.838 1302.99 -41.3353 1303.66 -41.501C1304.15 -41.6667 1302.83 -41.6667 1303.16 -41.8324C1305.81 -42.1639 1304.98 -42.3297 1299.84 -42.3297V-42.4954C1300.34 -42.4954 1301 -42.4954 1301.5 -42.4954H1301.34H1301.5C1302.83 -42.4954 1304.48 -42.4954 1305.64 -42.4954C1307.63 -42.6611 1305.48 -42.8269 1304.15 -42.8269C1302.33 -42.8269 1300.34 -42.9926 1298.35 -42.9926C1298.35 -42.9926 1298.35 -43.1584 1299.35 -43.1584C1302 -43.1584 1304.48 -43.3241 1307.14 -43.1584C1308.63 -42.9926 1311.45 -43.1584 1313.27 -42.9926C1314.93 -42.8269 1316.58 -42.8269 1317.91 -42.9926C1319.24 -43.1584 1318.74 -43.6555 1316.92 -43.6555C1313.43 -43.8213 1310.12 -43.987 1306.47 -43.987C1300.18 -44.1528 1295.2 -44.4842 1289.07 -44.65C1289.07 -44.9814 1289.07 -45.4786 1288.91 -45.8101H1289.07C1290.23 -45.8101 1291.06 -45.9758 1290.07 -46.1416C1290.4 -46.1416 1291.06 -46.1416 1291.89 -46.3073C1294.04 -46.1416 1294.71 -45.9758 1295.37 -45.8101C1295.7 -45.6444 1296.36 -45.6444 1297.52 -45.6444C1299.02 -45.8101 1302 -45.6444 1302.33 -45.9758C1302.5 -46.1416 1301 -46.1416 1299.68 -46.1416C1297.36 -46.1416 1295.37 -46.3073 1293.71 -46.4731C1293.71 -46.4731 1293.71 -46.4731 1293.55 -46.4731C1293.88 -46.4731 1294.54 -46.4731 1295.2 -46.4731C1298.68 -46.4731 1302 -46.4731 1305.15 -46.3073C1305.31 -46.3073 1305.48 -46.3073 1305.64 -46.3073C1304.82 -46.4731 1304.15 -46.473 1303.32 -46.6388C1303.16 -46.6388 1302.83 -46.8045 1303.99 -46.8045C1305.15 -46.8045 1305.65 -46.9703 1304.15 -46.9703C1303.16 -46.9703 1302 -46.9703 1301 -46.9703C1297.03 -46.9703 1293.55 -47.136 1289.73 -47.136C1289.4 -47.136 1289.24 -47.136 1288.91 -47.136C1297.36 -47.136 1305.65 -46.8045 1314.1 -46.9703C1318.24 -46.9703 1322.88 -46.4731 1326.2 -48.9591C1335.81 -51.4451 1345.75 -53.2682 1355.86 -54.7598C1358.51 -54.4284 1360.17 -55.4228 1361.33 -57.0801C1363.65 -57.9088 1365.81 -58.7375 1368.13 -59.7319C1369.62 -60.0634 1370.12 -60.892 1370.12 -61.8864C1373.93 -66.6928 1373.76 -66.6928 1366.97 -67.0242C1360.01 -67.3557 1353.05 -65.8641 1345.92 -67.0242C1339.12 -67.0242 1332.16 -67.19 1325.37 -67.19C1325.37 -67.5215 1325.37 -67.8529 1325.37 -68.1844C1331 -68.6816 1336.8 -69.3445 1342.44 -69.8417C1341.44 -70.8361 1340.62 -71.3334 1339.95 -71.3334C1325.86 -71.0019 1311.78 -71.4991 1297.69 -71.1676C1294.54 -71.1676 1291.23 -71.1676 1288.08 -71.1676C1289.4 -72.162 1289.24 -73.6536 1289.07 -76.8026C1289.07 -77.9628 1288.74 -79.1229 1288.57 -80.4488C1288.41 -80.946 1288.08 -81.2775 1287.41 -81.4432C1289.57 -84.5922 1285.43 -83.9292 1283.11 -84.095C1281.78 -84.2607 1280.29 -84.2607 1278.96 -84.2607C1282.11 -84.2607 1285.26 -84.4264 1288.41 -85.0894C1290.73 -86.9125 1289.57 -88.4041 1287.08 -89.5643C1273.33 -89.73 1259.57 -89.5642 1245.81 -89.067C1229.57 -88.5698 1213.16 -88.2384 1196.76 -87.9069C1196.43 -87.9069 1196.26 -88.0726 1196.09 -88.0726C1195.76 -88.0726 1195.27 -88.2383 1194.77 -88.2383C1194.44 -88.2383 1193.94 -88.2383 1193.61 -88.2383C1193.28 -88.2383 1193.28 -88.4041 1193.11 -88.4041C1187.31 -88.7356 1181.84 -88.9013 1176.04 -89.067C1175.05 -89.067 1174.22 -89.067 1173.06 -89.067C1161.29 -89.2328 1151.51 -89.3985 1139.08 -89.73C1120.85 -90.2272 1100.3 -90.3929 1081.74 -90.5586C1081.9 -90.5586 1083.06 -90.7244 1083.06 -90.8901H1082.9C1082.4 -91.0559 1081.07 -91.2216 1080.24 -91.2216C1079.42 -91.2216 1077.92 -91.0559 1077.76 -92.0503C1076.43 -92.5475 1075.94 -92.7132 1074.28 -92.5475C1071.46 -92.216 1068.15 -91.8845 1065.16 -92.3817C1065 -92.5475 1065.16 -92.3817 1065 -92.5475C1063.84 -93.7076 1063.67 -93.3762 1066.65 -93.3762C1068.15 -93.3762 1071.96 -93.7076 1073.62 -94.2048C1068.15 -94.702 1062.84 -94.5363 1057.37 -94.0391C1057.37 -94.0391 1057.37 -94.0391 1057.21 -94.0391C1057.04 -94.0391 1057.37 -94.0391 1056.88 -94.2048C1056.38 -94.3706 1054.89 -95.1992 1054.22 -95.5307C1054.06 -95.5307 1054.06 -95.5307 1054.06 -95.6964C1054.06 -95.6964 1053.89 -95.6964 1053.4 -95.6964C1052.07 -95.6964 1048.09 -95.365 1046.1 -95.5307C1044.11 -95.5307 1041.96 -96.3594 1039.97 -95.1993H1039.81C1039.81 -95.1993 1039.97 -95.0335 1038.98 -94.8678C1037.98 -94.5363 1034 -94.3705 1032.35 -93.8733C1032.35 -93.8733 1030.69 -93.8733 1030.52 -93.8733C1028.04 -94.5363 1026.88 -94.2048 1024.56 -93.5419C1024.39 -93.5419 1025.06 -93.7076 1024.06 -93.5419C1023.07 -93.3762 1019.75 -92.8789 1018.59 -93.3762C1016.6 -94.2048 1014.95 -94.0391 1012.96 -94.0391C1010.8 -94.0391 1008.48 -93.8734 1006.49 -93.7076C1003.84 -93.5419 1008.15 -92.8789 1004.34 -93.0447C1000.53 -93.2104 996.714 -93.3762 992.737 -92.879C992.737 -92.879 993.068 -92.7132 992.737 -92.879C992.405 -93.0447 990.085 -93.5419 989.588 -93.3762C986.936 -92.3817 982.793 -92.5475 980.638 -92.3817C978.483 -92.3817 978.649 -92.3817 977.489 -91.5531C977.489 -91.5531 977.82 -91.5531 976.66 -91.2216C975.169 -90.8901 972.02 -91.3873 969.534 -91.5531C943.182 -91.8845 916.167 -91.8845 889.484 -91.8845C886.5 -91.8845 883.517 -91.8845 880.534 -91.8845C880.865 -92.0503 881.197 -92.3817 880.865 -92.5475C880.534 -92.7132 879.871 -93.0447 879.374 -93.0447C878.877 -93.0447 876.39 -93.0447 877.551 -93.5419C878.711 -94.0391 880.368 -93.8734 881.362 -94.3706H881.528C882.357 -94.3706 885.174 -94.0391 886.5 -94.5363C887.66 -95.1993 887.66 -95.5307 886.169 -96.0279C883.683 -96.6909 880.865 -97.0223 877.882 -97.188C876.059 -97.188 873.076 -97.6853 872.247 -96.0279C872.081 -95.5307 870.424 -95.8622 869.761 -95.8622C865.783 -96.1937 862.8 -96.3594 859.154 -94.8678C856.502 -93.7076 853.187 -93.5419 850.204 -93.3762C847.221 -93.2104 844.238 -93.2104 841.255 -93.0447C835.288 -92.8789 829.487 -92.7132 823.521 -92.3817C798.992 -92.5475 774.463 -92.7132 750.1 -92.7132C747.283 -92.7132 744.299 -92.7132 741.813 -92.5475C739.162 -92.3817 737.173 -92.3817 734.852 -92.3817C725.24 -92.5475 715.793 -92.5475 706.18 -92.5475C706.18 -92.5475 706.18 -92.5475 706.015 -92.5475C701.042 -92.5475 696.236 -92.7132 691.264 -92.7132C690.933 -92.879 690.601 -92.8789 690.435 -93.0447C689.607 -93.2104 689.441 -93.0447 689.772 -92.7132C685.132 -92.7132 680.491 -92.7132 675.851 -92.879C627.787 -93.3762 579.558 -94.0391 531.495 -94.702C515.75 -94.8678 500.171 -95.0335 484.426 -95.365C480.283 -95.5307 476.803 -96.6909 472.659 -95.365C472.493 -95.365 472.493 -95.1993 472.162 -95.1993C470.505 -94.8678 468.681 -95.5307 466.693 -95.5307C427.745 -96.0279 388.466 -96.1936 349.518 -96.5251C346.535 -96.5251 343.551 -96.5251 340.402 -96.5251C339.905 -96.5251 339.574 -96.5251 338.745 -96.5251C337.751 -96.5251 336.259 -96.5251 334.933 -96.5251C328.635 -96.6909 322.171 -97.0223 315.873 -96.8566C305.598 -96.6909 295.488 -96.6909 285.212 -96.8566C282.063 -96.8566 279.246 -96.6909 276.097 -96.5251C275.931 -96.5251 275.766 -96.5251 275.434 -96.5251C274.108 -97.1881 272.451 -97.5195 270.793 -97.6853C270.462 -97.1881 270.296 -96.8566 270.131 -96.5251C268.142 -96.5251 266.153 -96.5251 264.164 -96.5251C263.335 -96.8566 262.341 -97.3538 261.015 -98.0167C260.352 -97.6853 260.684 -97.0223 261.015 -96.3594C258.695 -96.1936 256.374 -95.8622 253.888 -95.365C253.723 -95.365 254.386 -95.365 253.557 -95.5307C252.728 -95.6964 250.74 -95.5307 250.077 -94.8678C250.077 -94.8678 250.077 -94.8678 249.745 -94.8678C249.248 -94.8678 248.088 -94.702 247.425 -94.702C225.051 -94.702 202.676 -94.8678 180.302 -94.8678C177.319 -94.8678 174.335 -94.8678 171.352 -95.0335C170.689 -95.0335 170.524 -95.0335 169.695 -95.0335C168.7 -95.0335 167.209 -95.0335 165.883 -95.0335C159.585 -95.1992 153.121 -95.5307 146.823 -95.365C136.714 -95.1993 126.272 -95.0335 116.328 -95.1993C113.345 -95.1993 109.699 -94.702 107.213 -94.702C101.412 -94.702 89.479 -94.2048 86.33 -93.3762C83.181 -92.5475 85.6671 -93.2104 85.6671 -93.2104C85.5013 -93.2104 85.3356 -93.2104 85.3356 -93.0447C85.3356 -93.0447 85.5013 -93.0447 85.3356 -93.0447C85.3356 -93.0447 85.3356 -93.0447 85.0041 -93.0447C84.1755 -93.0447 82.3524 -92.8789 81.5237 -92.5475C81.358 -92.5475 81.358 -92.5475 81.1922 -92.5475C80.0321 -92.3817 77.8775 -92.0503 76.7174 -92.0503C75.5572 -92.0503 75.8887 -91.5531 75.06 -91.5531C75.06 -91.5531 75.06 -91.553 75.06 -91.3873C75.06 -91.0558 74.8943 -91.7188 74.8943 -90.8901C74.8943 -90.7244 74.8943 -90.7244 74.8943 -90.5586C65.6131 -90.2272 56.4976 -89.8957 47.3822 -89.5643C38.764 -89.2328 29.98 -88.9013 22.1904 -88.4041C14.5666 -88.2384 7.60572 -87.7411 1.47351 -87.4097C-0.681049 -87.2439 -2.83561 -87.0782 -3.49855 -86.9125C-4.16149 -86.9125 -4.65869 -86.7467 -5.32164 -86.7467C-13.4427 -86.9125 -19.9063 -86.7467 -24.0497 -85.9181C-25.0441 -85.9181 -25.8728 -85.7523 -26.5358 -85.5866C-30.3477 -85.7523 -33.9938 -85.9181 -37.8058 -86.2496C-40.4575 -85.4209 -43.275 -85.0894 -45.2639 -83.432C-44.6009 -83.432 -43.6065 -83.2663 -42.2806 -83.2663C-45.7611 -82.9348 -46.7555 -82.4376 -44.6009 -82.1062C-44.2694 -82.1062 -44.2694 -81.9404 -44.1037 -81.9404C-45.5953 -81.9404 -47.0869 -81.7747 -48.7443 -81.9404V-81.7747C-47.5841 -81.7747 -47.2527 -81.6089 -46.424 -81.6089C-46.0925 -81.4432 -45.5953 -81.4432 -45.4296 -81.2775C-45.0981 -80.946 -42.6121 -80.7802 -43.4408 -80.6145C-44.1037 -80.4488 -43.7722 -80.1173 -42.2806 -79.9516C-42.9436 -79.7858 -44.6009 -79.7859 -42.2806 -79.6201C-36.9771 -79.2887 -36.8113 -79.1229 -41.2862 -78.7915C-44.1037 -78.6257 -43.275 -78.2942 -41.4519 -78.1285C-41.1205 -77.9627 -41.6177 -77.6313 -38.9659 -77.4656C-38.6344 -77.4656 -38.4687 -77.4656 -38.1372 -77.4656C-38.1372 -77.4656 -38.1372 -77.2998 -38.303 -77.2998C-43.7722 -76.9683 -44.9324 -76.8026 -42.9436 -76.1397C-42.2806 -75.974 -40.2918 -75.8082 -38.9659 -75.6425C-38.6344 -75.4767 -36.6456 -75.311 -39.2974 -75.311C-42.7778 -75.1453 -43.1093 -74.8138 -40.4575 -74.4823C-40.2918 -74.4823 -40.1261 -74.4823 -39.9603 -74.4823C-40.1261 -74.4823 -40.2918 -74.4823 -40.4575 -74.4823C-39.4631 -74.3166 -42.1149 -74.3166 -42.4464 -74.1508C-41.9492 -73.9851 -41.1205 -73.9851 -40.2918 -73.9851C-39.2974 -73.9851 -38.303 -73.9851 -37.4743 -73.9851C-35.4855 -73.9851 -35.8169 -73.8194 -38.9659 -73.6537C-39.9603 -73.6537 -40.789 -73.6537 -41.7834 -73.6537C-43.275 -73.6537 -45.0981 -73.6536 -45.5953 -73.4879C-46.0925 -73.3222 -44.2694 -73.3222 -43.1093 -73.1564C-40.789 -72.9907 -40.9547 -72.825 -42.7778 -72.6592C-47.7499 -72.3278 -47.7499 -72.3278 -43.1093 -71.9963C-42.7778 -71.9963 -42.6121 -71.9963 -42.2806 -71.8306C-43.275 -71.4991 -45.2639 -71.1676 -43.6065 -70.8361C-43.275 -70.8361 -43.275 -70.8361 -43.275 -70.8361C-43.4408 -70.8361 -43.6065 -70.8361 -43.6065 -70.8361C-43.938 -70.6704 -43.275 -70.6704 -42.6121 -70.5047C-41.2862 -70.339 -39.6288 -70.0075 -41.2862 -69.676C-42.2806 -69.676 -43.1093 -69.676 -43.6065 -69.5103C-44.9324 -69.3445 -46.424 -69.0131 -43.275 -68.8473C-40.2918 -68.6816 -40.789 -68.3501 -43.4408 -68.1844C-44.1037 -68.1844 -45.4296 -68.1844 -45.2639 -68.1844C-45.0981 -68.0186 -43.938 -68.0187 -42.6121 -68.0187C-37.64 -67.6872 -37.3086 -67.6872 -39.6288 -67.3557C-40.4575 -67.3557 -41.2862 -67.3557 -41.9491 -67.3557C-43.4408 -67.3557 -46.2583 -67.5215 -46.424 -67.19C-46.5897 -67.0243 -43.4408 -67.0242 -41.9491 -67.0242C-41.7834 -67.0242 -40.789 -66.8585 -41.7834 -66.8585C-44.4352 -66.6928 -43.1093 -66.6927 -41.9491 -66.527C-41.1205 -66.527 -40.4575 -66.3613 -39.6288 -66.3613C-39.6288 -66.0298 -36.9771 -65.8641 -33.9938 -65.8641C-32.3365 -65.6983 -32.668 -65.5326 -31.5078 -65.3669C-31.0106 -65.2012 -30.5134 -65.2011 -30.6791 -65.0354C-32.005 -64.8697 -30.6791 -64.704 -29.519 -64.704C-25.3756 -64.5382 -26.0385 -64.2067 -27.3644 -64.041C-27.8616 -63.8752 -29.519 -64.041 -30.0162 -63.8753C-31.6736 -63.7095 -31.5078 -63.5438 -30.0162 -63.378C-29.0218 -63.2123 -30.0162 -62.8808 -27.6959 -62.7151C-27.1987 -62.7151 -26.7015 -62.5494 -26.2043 -62.5494C-31.8393 -62.2179 -33.3309 -61.8864 -30.8449 -61.2235C-30.6791 -61.2235 -30.3477 -61.2235 -30.1819 -61.2235C-29.6847 -61.0578 -28.6903 -61.0578 -27.6959 -60.892C-27.8616 -60.7263 -24.5469 -60.5606 -27.1987 -60.3948C-31.0106 -60.0634 -31.3421 -59.8976 -28.5246 -59.5662H-28.3589C-28.6903 -59.5662 -29.0218 -59.4004 -29.3533 -59.4004C-29.8505 -59.4004 -30.3477 -59.4004 -30.5134 -59.2347C-30.3477 -59.2347 -30.3477 -59.2347 -30.1819 -59.2347C-31.0106 -59.0689 -31.8393 -58.9032 -32.668 -58.7375C-33.1652 -58.7375 -33.6624 -58.7375 -33.8281 -58.5717C-33.9938 -58.5717 -33.9938 -58.5717 -33.8281 -58.406C-35.3197 -58.0745 -36.9771 -57.9088 -38.4687 -57.5773C-41.1205 -57.743 -42.7778 -56.9144 -43.7722 -55.257C-46.0925 -54.4283 -48.2471 -53.4339 -50.5674 -52.6052C-52.059 -52.2738 -52.3905 -51.4451 -52.5562 -50.4507C-56.2024 -45.6444 -56.0367 -45.4786 -49.4072 -45.3129C-42.4464 -45.1472 -35.4855 -46.4731 -28.3589 -45.4786C-23.5525 -45.4786 -18.5805 -45.4786 -13.7741 -45.4786C-14.1056 -45.3129 -14.4371 -44.9814 -14.6028 -44.65C-15.1 -44.65 -15.4315 -44.65 -16.0944 -44.65C-16.0944 -44.3185 -16.2602 -43.987 -16.2602 -43.6555C-16.4259 -43.6555 -16.4259 -43.6555 -16.5916 -43.4898C-19.4091 -43.1583 -22.2266 -42.8269 -25.0441 -42.6611C-24.5469 -42.1639 -24.2155 -41.8324 -23.884 -41.6667C-24.3812 -41.501 -24.8784 -41.501 -25.5413 -41.501C-25.5413 -41.6667 -25.5413 -41.8325 -25.5413 -41.9982C-25.0441 -42.1639 -25.2099 -42.1639 -25.8728 -42.1639C-27.3644 -41.9982 -28.6903 -41.9982 -30.0162 -42.1639C-32.668 -42.3297 -35.3197 -42.1639 -38.1372 -41.6667C-42.4463 -41.3352 -46.7555 -40.838 -50.2359 -40.0094C-50.2359 -39.6779 -49.9044 -39.6779 -49.573 -39.6779C-48.7443 -39.6779 -47.4184 -39.8436 -47.7499 -39.3464C-47.9156 -39.0149 -48.91 -39.015 -49.7387 -38.8492C-53.0534 -38.5178 -56.5339 -38.1863 -59.8486 -37.8548C-62.3346 -37.6891 -62.3346 -37.6891 -61.6717 -37.0261C-63.4947 -36.1975 -63.4947 -36.0317 -62.0031 -35.3688C-60.6772 -34.8716 -60.843 -34.5401 -62.9975 -34.2086C-63.9919 -34.0429 -65.1521 -34.0429 -66.1465 -33.8772C-67.6381 -33.7114 -69.4612 -33.8772 -71.2843 -33.2142C-68.6325 -33.38 -66.6437 -33.3799 -64.6549 -33.5457H-64.8206C-64.6549 -33.5457 -64.6549 -33.5457 -64.6549 -33.5457C-62.5003 -33.7114 -61.0087 -33.2142 -59.0199 -33.3799C-55.5394 -33.5457 -52.2247 -33.7114 -48.7443 -33.8772C-48.2471 -33.8772 -48.2471 -33.8772 -48.4128 -33.7114C-48.91 -33.38 -50.2359 -33.7114 -50.7331 -33.3799C-49.7387 -33.2142 -48.4128 -33.5457 -47.4184 -33.2142C-50.8989 -33.2142 -53.7164 -32.5513 -57.5283 -32.3856C-50.7331 -32.2198 -44.6009 -33.2142 -37.9715 -33.3799C-39.9603 -33.0485 -41.4519 -33.0485 -41.9491 -32.5513C-48.5786 -31.8883 -55.3737 -31.3912 -62.0031 -30.7282C-63.9919 -30.5625 -65.815 -30.231 -67.4724 -29.568C-56.2024 -30.231 -44.7666 -30.7282 -33.6624 -31.2254C-34.3253 -31.2254 -34.9883 -31.0596 -35.6512 -30.8939C-35.6512 -30.8939 -35.8169 -30.8939 -35.4855 -30.7282C-35.3197 -30.7282 -34.6568 -30.5625 -33.9938 -30.3967C-42.6121 -29.7338 -51.3961 -29.4023 -60.0143 -28.4079C-56.3681 -28.5736 -52.7219 -28.7394 -49.2415 -28.9051C-47.4184 -28.5736 -45.2639 -28.9051 -43.4408 -28.9051C-42.6121 -28.9051 -41.2862 -29.2366 -40.9547 -28.9051C-40.2918 -28.4079 -38.9659 -28.7394 -37.9715 -28.7394C-36.3141 -28.7394 -34.6568 -28.9051 -33.1652 -28.9051C-32.005 -28.7394 -30.8449 -28.9051 -29.6847 -29.0709C-29.0218 -28.9051 -28.5246 -28.7394 -27.5302 -28.9051C-27.1987 -28.9051 -26.8672 -28.9051 -26.5358 -28.9051C-27.3644 -28.5736 -28.3589 -28.7394 -29.3533 -28.5736C-37.4743 -28.0764 -45.5953 -27.4135 -54.2136 -26.9163C-50.0702 -26.5848 -46.0925 -26.5848 -42.1149 -26.9163C-37.64 -27.082 -33.1652 -27.2478 -28.6903 -27.4135C-27.8616 -27.2478 -26.8672 -27.2478 -26.0386 -27.2478C-24.7127 -27.082 -23.5525 -27.082 -22.2266 -27.082C-22.3924 -26.5848 -22.5581 -26.2534 -22.7238 -25.7562C-24.5469 -25.7562 -26.2043 -25.7561 -28.0274 -25.5904C-27.8616 -25.7561 -27.5302 -25.7561 -27.3644 -25.9218C-29.519 -26.0876 -31.8393 -26.4191 -33.6624 -25.5904C-34.6568 -25.0932 -32.3365 -24.9275 -32.005 -24.9275C-31.6736 -24.9275 -31.5078 -24.9275 -31.1763 -24.9275C-33.8281 -24.4303 -36.3141 -24.7617 -38.9659 -24.9275C-41.1205 -23.9331 -44.2694 -24.7617 -46.424 -24.7617C-51.7275 -24.7617 -56.5339 -24.2645 -61.6717 -23.9331C-58.1912 -23.6016 -54.8765 -23.7673 -51.5618 -23.7673C-52.2247 -23.2701 -52.3905 -22.9386 -53.5506 -22.9386C-54.7108 -22.9386 -56.3681 -23.1044 -57.3625 -22.2757C-54.7108 -22.2757 -51.8933 -22.1099 -49.2415 -21.9442C-53.3849 -21.447 -57.3625 -21.1156 -61.6717 -21.447C-65.815 -20.9498 -69.9584 -20.7841 -74.2675 -20.7841C-77.2508 -19.6239 -80.0683 -19.9554 -83.2172 -20.1211C-84.8746 -19.4582 -86.532 -18.961 -88.5208 -18.6295C-87.1949 -18.6295 -86.0348 -18.6295 -84.7089 -18.4638C-87.0292 -17.3036 -89.1837 -16.9721 -91.8355 -16.8064C-91.3383 -16.9721 -91.0068 -17.1379 -90.5096 -17.3036C-93.3271 -17.3036 -95.3159 -16.6407 -98.2992 -16.475C-100.122 -16.3092 -101.282 -16.4749 -97.3048 -16.1435C-91.0068 -15.6463 -82.72 -15.6463 -76.0906 -14.3204C-76.7536 -14.3204 -77.5822 -14.3204 -78.4109 -14.3204C-78.4109 -14.3204 -78.0795 -14.3204 -78.2452 -14.3204C-78.4109 -14.3204 -79.7368 -14.3204 -80.0683 -14.3204C-80.3997 -14.3204 -79.9025 -14.3204 -80.0683 -14.3204C-84.0459 -14.4861 -88.0236 -14.4861 -92.167 -14.1547C-91.8355 -14.1547 -91.3383 -14.1547 -91.1725 -14.1547C-91.0068 -14.1547 -91.1725 -14.1547 -91.0068 -14.1547C-90.8411 -14.1547 -90.5096 -13.9889 -90.1781 -13.9889C-87.5264 -13.9889 -85.0403 -13.9889 -82.5543 -13.4917C-83.8802 -13.4917 -85.2061 -13.4917 -86.532 -13.4917C-83.5487 -13.326 -80.5655 -13.1603 -77.5822 -13.1603C-77.4165 -13.1603 -77.9137 -13.1603 -77.748 -13.1603C-76.9193 -13.1603 -75.7592 -13.1603 -74.9305 -13.1603C-74.7647 -13.1603 -74.7647 -12.9945 -75.0962 -12.9945C-70.6214 -12.9945 -65.9808 -12.9945 -61.3402 -12.8288H-61.1744C-60.3458 -12.8288 -57.694 -12.8288 -57.3625 -12.8288C-48.0814 -12.663 -39.4631 -12.3316 -30.3477 -12.0001C-31.0106 -11.3371 -31.8393 -10.84 -32.3365 -10.0113C-30.1819 -9.67982 -28.5246 -9.34833 -27.3644 -8.02245C-28.3588 -8.35392 -29.0218 -7.69099 -29.1875 -7.35952C-29.8505 -7.19378 -29.519 -7.35952 -30.6791 -7.35952C-36.9771 -7.02805 -44.7666 -6.69658 -51.2303 -6.53084C-52.8877 -6.53084 -54.3793 -6.36508 -55.5394 -6.19935C-59.6828 -6.03361 -63.1633 -5.8679 -67.3067 -5.70216C-68.4668 -5.20496 -70.6214 -5.37067 -71.7815 -5.37067C-72.9417 -5.37067 -73.9361 -5.20493 -74.7647 -5.20493C-80.234 -5.03919 -85.2061 -4.54202 -90.5096 -4.04481C-92.6642 -3.87907 -94.9845 -3.87908 -97.139 -3.38188C-97.3047 -3.38188 -97.139 -3.38187 -97.9677 -3.21613C-98.7964 -3.0504 -98.7964 -2.88463 -96.9733 -2.7189C-95.1502 -2.55316 -92.4984 -2.056 -90.3439 -1.72452C-89.6809 -1.72452 -88.8523 -1.55878 -88.0236 -1.55878C-85.869 -1.55878 -83.5487 -1.39303 -81.2284 -1.39303C-80.8969 -1.39303 -80.3997 -1.39303 -80.0683 -1.39303C-79.5711 -1.39303 -79.2396 -1.39303 -78.7424 -1.39303C-78.2452 -1.39303 -77.9137 -1.39303 -77.4165 -1.39303C-75.5934 -1.39303 -73.9361 -1.39303 -72.113 -1.39303C-72.113 -1.39303 -72.113 -1.39303 -71.9472 -1.39303C-71.6158 -1.39303 -70.4556 -1.22729 -69.9584 -1.22729C-69.4612 -1.22729 -69.2955 -1.22728 -68.7983 -1.06154C-68.3011 -1.06154 -67.6381 -1.06154 -66.9752 -1.06154C-66.3122 -1.06154 -66.478 -1.06154 -65.6493 -1.06154C-64.8206 -1.06154 -63.4947 -1.06154 -62.3346 -1.06154C-55.0422 -0.730072 -47.5841 -0.564357 -40.2918 -0.564357C-42.1149 0.430055 -43.6065 1.75596 -44.9324 3.08184C-45.2639 2.4189 -46.424 2.91611 -46.9212 3.08184C-47.4184 3.24758 -46.9212 3.24754 -47.2527 3.24754C-47.5841 3.24754 -47.5841 2.91609 -47.7499 2.75035C-47.9156 2.58461 -48.4128 2.5846 -48.7443 2.5846C-49.0758 2.5846 -49.4072 2.75036 -49.2415 2.9161C-49.0758 3.08183 -48.7443 3.24755 -48.7443 3.41328C-48.7443 3.57902 -49.0758 3.41328 -49.0758 3.41328C-46.2583 5.40211 -42.2806 5.89931 -39.1317 7.55667C-39.2974 7.55667 -41.6177 7.55669 -40.9547 7.88816C-40.2918 8.21963 -36.9771 7.55669 -37.1428 8.71683C-46.0925 8.05389 -54.8765 6.39653 -63.8262 5.23638C-65.4836 6.728 -64.4891 7.5567 -62.9975 8.88258C-60.0143 9.04831 -57.694 9.21403 -55.8709 11.0371C-51.7275 11.3686 -48.0814 11.5343 -44.6009 13.5231C-49.9044 14.5176 -54.8765 14.5176 -60.18 14.1861C-66.1465 15.3462 -72.2787 16.0092 -78.0795 17.6665C-77.748 20.484 -75.4277 21.6442 -72.2787 22.9701C-64.4892 23.1358 -57.0311 23.3015 -49.4072 22.3071C-47.7499 24.1302 -43.7722 22.9701 -41.9491 24.1302C-40.1261 25.2903 -43.7722 26.6162 -41.6177 27.6107C-40.4575 26.9477 -38.9659 27.1134 -37.4743 27.2792C-34.9883 30.2624 -35.3197 33.7429 -33.9938 37.0576C-38.1372 36.3946 -42.1149 36.3946 -46.424 36.2289C-47.5841 37.7205 -49.4072 38.052 -51.7275 38.2177C-51.7275 38.8806 -51.3961 39.3779 -51.2303 39.8751C-53.3849 40.0408 -55.208 40.538 -57.0311 41.8639C-66.6437 44.5157 -76.5878 46.3387 -86.532 47.9961C-89.1837 47.8303 -90.8411 48.6591 -91.8355 50.3164C-94.1558 51.1451 -96.3103 52.1395 -98.6306 52.9681C-100.122 53.2996 -100.454 54.1283 -100.619 55.1227C-104.266 59.9291 -104.1 60.0948 -97.4705 60.2605C-90.5096 60.4263 -83.5487 59.1004 -76.4221 60.0948C-69.627 60.0948 -62.6661 60.0948 -55.8709 60.0948C-55.8709 60.4263 -55.8709 60.7577 -55.8709 61.0892C-61.5059 61.7522 -67.3066 62.2493 -72.9416 62.9123C-71.9472 63.9067 -71.1186 64.4039 -70.2899 64.4039C-62.3346 64.2382 -54.3793 64.2382 -46.424 64.0724C-46.9212 64.2382 -47.4184 64.4039 -47.9156 64.4039C-46.5897 64.4039 -45.4296 64.4039 -44.1037 64.5696C-46.424 65.7298 -48.5786 66.0612 -51.2303 66.227C-50.7331 66.0612 -50.4017 65.8955 -49.9044 65.7298C-52.7219 65.7298 -54.7108 66.3927 -57.694 66.5585C-59.5171 66.7242 -60.6772 66.5585 -56.6996 66.89C-50.4016 67.3872 -42.1149 67.3871 -35.4855 68.713C-36.1484 68.713 -36.9771 68.713 -37.8058 68.713C-37.8058 68.713 -37.4743 68.713 -37.64 68.713C-37.8058 68.713 -39.1316 68.713 -39.4631 68.713C-39.7946 68.713 -39.2974 68.713 -39.4631 68.713C-43.4408 68.5473 -47.4184 68.5473 -51.5618 68.8787C-51.2303 68.8787 -50.7331 68.8787 -50.5674 68.8787C-50.4016 68.8787 -50.5674 68.8787 -50.4016 68.8787C-50.2359 68.8787 -49.9044 69.0445 -49.573 69.0445C-46.9212 69.0445 -44.4352 69.2102 -41.9491 69.5417C-43.275 69.5417 -44.6009 69.5417 -45.9268 69.5417C-42.9436 69.7074 -39.9603 69.8732 -36.9771 69.8732C-36.8114 69.8732 -37.3086 69.8732 -37.1428 69.8732C-36.3141 69.8732 -35.154 69.8732 -34.3253 69.8732C-34.1596 69.8732 -34.1596 70.0389 -34.4911 69.8732C-33.6624 70.0389 -32.8337 69.7074 -32.005 70.0389C-28.1931 71.5305 -25.8728 73.1879 -21.2322 74.0166C-15.4315 75.011 -8.30487 74.8452 -2.00693 75.5082C-0.681046 75.6739 0.810572 76.0054 2.13645 76.1711C-2.00693 76.3368 -6.64751 76.5026 -10.6252 76.6683C-12.2825 76.6683 -13.7741 76.834 -14.9343 76.9998C-19.0777 77.1655 -22.5581 77.3313 -26.7015 77.497C-27.8616 77.9942 -30.0162 77.8284 -31.1763 77.8284C-32.3365 77.8284 -33.3309 77.9942 -34.1596 77.9942C-39.6289 78.1599 -44.6009 78.6572 -49.9044 79.1544C-52.059 79.3201 -54.3793 79.3201 -56.5339 79.8173C-56.6996 79.8173 -56.5339 79.8173 -57.3625 79.983C-58.1912 80.1488 -58.1912 80.3145 -56.3681 80.4802C-54.545 80.646 -51.8933 81.1432 -49.7387 81.4746C-49.0758 81.4746 -48.2471 81.6404 -47.4184 81.6404C-45.2639 81.6404 -42.9436 81.8061 -40.6233 81.8061C-40.2918 81.8061 -39.7946 81.8061 -39.4631 81.8061C-38.9659 81.8061 -38.6344 81.8061 -38.1372 81.8061C-37.64 81.8061 -37.3086 81.8061 -36.8114 81.8061C-34.9883 81.8061 -33.3309 81.8061 -31.5078 81.8061C-31.5078 81.8061 -31.5078 81.8061 -31.3421 81.8061C-31.0106 81.8061 -29.8505 81.9718 -29.3533 81.9718C-28.8561 81.9718 -28.6903 81.9718 -28.1931 82.1376C-27.6959 82.1376 -27.033 82.1376 -26.37 82.1376C-25.7071 82.1376 -25.8728 82.1376 -25.0441 82.1376C-24.2155 82.1376 -22.8896 82.1376 -21.7294 82.1376C-8.13914 82.6348 5.6169 82.6348 19.3729 82.8005C20.8646 82.8005 22.1904 82.8005 23.6821 82.8005C24.1793 82.8005 24.5107 82.8005 25.0079 82.8005C25.5051 82.8005 26.4996 82.8005 26.9968 82.8005C28.3227 82.8005 30.4772 82.8005 31.4716 82.8005C32.6318 82.8005 33.4604 82.8005 34.1234 82.8005C34.952 82.8005 34.9521 82.8005 35.615 82.8005C37.4381 82.8005 38.5982 82.8005 40.5871 82.9663C42.5759 82.9663 45.3934 82.9663 47.7137 83.132C48.8738 83.132 50.1997 83.132 51.3599 83.132C69.5908 83.4635 87.9874 83.7949 106.384 83.9607C109.367 83.9607 112.185 84.1264 115.168 84.1264C116.162 84.1264 117.157 84.1264 117.985 84.1264C118.648 84.1264 118.814 84.1264 119.477 84.1264C120.14 84.1264 120.803 84.1264 121.466 84.1264C123.786 84.1264 126.272 84.1264 128.593 84.1264C127.93 84.1264 128.261 84.4579 128.593 84.4579C128.924 84.4579 128.593 84.1264 128.758 84.1264C129.09 84.1264 129.255 84.1264 129.587 84.1264C129.918 84.1264 130.581 83.9607 131.079 83.9607C133.896 84.1264 136.714 84.2922 139.531 84.1264C140.525 84.1264 141.354 84.1264 142.349 84.1264C140.525 84.1264 138.537 84.2921 136.548 84.4579C136.051 84.4579 135.553 84.4579 135.056 84.4579C134.559 84.4579 134.725 84.4579 134.228 84.4579C133.73 84.4579 133.399 84.2922 132.736 84.1264C132.073 83.9607 129.587 84.1264 129.587 84.4579C129.587 84.4579 129.587 84.4579 129.587 84.6236C129.421 84.6236 129.587 84.6236 129.421 84.6236C129.255 84.6236 128.924 84.7893 128.593 84.7893C127.101 84.7893 125.775 84.9551 124.283 84.9551C121.3 84.9551 118.151 84.7893 115.168 85.2865C102.738 85.618 90.3077 85.618 78.0432 85.7838C76.5516 86.6124 74.5628 86.4467 73.7341 87.7726C89.9762 88.104 106.218 88.4355 122.46 88.6012C122.792 89.5957 121.797 89.0985 119.809 89.0985C118.648 89.0985 114.174 89.2642 112.516 89.7614C117.82 90.2586 123.455 90.0929 128.924 90.0929C129.09 90.0929 128.758 90.0929 129.255 90.2586C129.587 90.4243 130.747 91.253 131.079 91.5845C131.244 91.5845 131.41 91.5845 131.907 91.5845C133.565 91.7502 137.211 91.4188 139.365 91.5845C141.52 91.7502 143.674 92.5789 145.663 91.4188H145.829C145.829 91.4188 145.829 91.253 146.492 91.0873C148.481 90.4243 151.63 90.4243 154.116 90.2586C154.116 90.2586 155.773 90.2586 155.939 90.2586C157.928 90.9215 160.579 90.4244 161.905 90.0929C162.071 90.0929 162.071 90.0929 162.071 90.0929C161.905 90.0929 161.905 90.0929 162.071 90.0929C162.237 90.0929 162.071 90.0929 162.071 90.0929C162.237 90.0929 161.408 90.2586 162.568 90.0929C163.563 89.9272 167.043 89.43 168.203 90.0929C170.026 91.0873 171.518 90.9216 173.507 90.9216C175.496 90.9216 178.147 90.9216 179.805 90.9216C182.457 90.7558 177.65 89.9271 181.959 90.4243C186.103 90.7558 189.583 90.9216 193.727 90.5901C194.058 90.7558 196.047 91.253 196.378 91.0873C199.196 90.4243 203.339 90.4243 205.659 90.4243C207.98 90.4243 207.814 90.4244 209.306 89.7614C209.471 89.7614 209.306 89.7614 209.306 89.7614C211.294 89.0985 213.118 89.0985 215.106 89.0985C215.769 89.0985 216.598 89.0985 217.095 88.9327C219.913 88.1041 219.084 87.7726 216.267 87.4411C214.609 87.2754 211.129 87.9383 209.471 86.9439C222.896 86.7782 236.486 86.6124 249.911 86.4467C250.905 86.4467 251.9 86.4467 252.894 86.4467C253.226 86.4467 252.728 87.1096 253.06 87.2754C262.838 87.4411 272.451 87.7726 282.229 87.9383C281.898 87.9383 281.566 88.1041 281.235 88.1041C284.218 88.2698 287.201 88.2698 290.019 88.2698C289.853 88.2698 289.853 88.1041 289.687 88.1041C293.831 88.1041 297.974 88.2698 302.283 88.2698C302.615 87.4411 305.432 87.4411 306.758 87.4411C308.084 87.4411 310.238 87.1097 311.564 87.4411C312.724 87.6069 313.387 88.4355 314.382 88.6012C310.404 88.6012 306.427 88.4355 302.615 88.4355C302.117 88.4355 301.455 88.4355 301.123 88.4355C301.123 88.4355 301.123 88.4355 300.957 88.4355C299.134 88.1041 297.477 88.1041 295.654 88.1041C293.831 88.1041 291.842 88.1041 289.853 88.1041C290.35 88.1041 290.682 88.767 290.847 88.9327C291.013 89.0985 290.847 88.9327 291.013 88.9327C291.179 88.9327 291.179 89.2642 291.179 89.2642C292.008 89.7614 295.654 90.0929 295.985 90.0929C296.151 90.0929 296.151 90.0929 296.317 90.0929C297.477 90.5901 300.129 90.2586 300.957 90.0929H301.123C301.123 90.0929 301.123 90.0929 301.289 90.0929C302.449 90.2586 303.443 90.5901 304.438 90.0929C304.438 90.0929 304.438 90.0929 304.603 90.0929C304.769 90.0929 305.598 90.0929 305.929 90.0929C305.929 90.0929 305.929 90.0929 306.095 90.0929C306.095 90.0929 306.095 90.0929 306.261 90.0929C306.592 90.0929 307.587 90.4243 307.918 90.4243C308.25 90.4243 307.918 90.4243 307.918 90.4243C307.918 90.4243 307.918 90.4243 307.752 90.4243C307.421 90.5901 306.592 91.253 307.752 91.253C306.592 91.253 305.598 91.253 304.603 91.4188C307.587 91.4188 310.404 91.5845 313.387 92.0817C312.227 91.916 311.067 91.916 309.907 92.2474C311.233 92.2474 312.393 92.4132 313.719 92.5789C311.73 92.5789 309.741 92.4132 307.752 92.4132C308.25 92.4132 308.415 92.9104 307.587 92.9104C306.758 93.0761 305.101 92.9104 304.106 92.7446C303.112 92.7446 301.786 92.7447 301.62 93.4076C301.454 93.7391 302.449 93.9048 302.78 93.9048C303.112 93.9048 305.598 94.0705 304.272 94.402C302.946 94.7335 300.129 94.2363 299.963 95.065C299.797 95.065 299.797 95.065 299.631 95.065C298.306 94.8992 296.151 94.7335 294.991 95.065C293.831 95.3964 292.836 95.8936 294.162 96.5566C296.482 97.551 298.637 97.7167 301.62 98.0482C303.278 98.2139 306.261 98.5454 307.752 97.0538C308.084 96.7223 309.576 96.888 310.238 96.888C314.216 97.2195 317.365 97.3852 321.343 96.2251C324.16 95.3964 327.806 95.065 330.955 95.065C334.104 95.065 336.756 95.065 339.739 95.065C348.523 95.065 356.644 95.2307 365.263 93.9048C366.257 93.7391 367.749 93.739 369.075 93.739C373.881 93.739 379.019 93.7391 383.991 94.2363C385.151 94.402 386.643 94.2363 387.637 94.0705C392.278 93.5733 397.747 93.5733 402.222 93.4076C405.536 93.2419 407.194 94.2363 410.011 94.2363C412.994 94.2363 415.978 93.7391 418.961 94.0705C419.955 94.2363 421.281 94.2363 422.11 94.5677C422.939 94.8992 423.27 95.7279 423.933 96.2251C424.264 95.3964 423.601 95.0649 422.773 94.5677C425.922 94.5677 429.071 94.402 432.22 93.9048C432.717 93.9048 433.214 93.739 433.711 93.739C434.043 93.739 434.043 94.0705 434.374 94.0705C434.706 94.0705 434.706 93.739 435.037 93.5733C436.86 93.4076 439.181 93.5733 441.004 93.739C440.672 93.739 440.341 93.739 440.009 93.739C440.672 94.2363 441.832 94.2363 443.158 94.2363C451.611 94.0705 459.732 94.2363 468.019 94.2363C468.516 94.2363 468.847 94.402 469.179 94.402C470.505 94.5677 470.505 94.402 470.339 94.2363C471.333 94.2363 472.328 94.2363 473.322 94.2363C477.134 94.2363 480.946 94.402 484.592 94.402C486.581 94.5677 488.57 94.5677 490.724 94.5677C491.056 94.5677 491.387 94.5677 491.719 94.5677C493.376 94.5677 495.033 94.5677 496.857 94.5677C500.337 94.5677 503.817 94.7335 507.132 94.7335C509.121 94.7335 511.11 94.7335 513.099 94.7335C517.739 95.0649 522.545 95.0649 527.849 94.402C529.506 94.2362 531.164 94.2363 531.992 94.5677C533.981 95.5621 536.633 94.7335 539.119 94.5677C538.456 93.4076 535.97 93.4076 533.318 93.5733C529.672 93.739 526.026 93.5733 522.38 93.5733C530.667 92.4132 538.788 92.2474 547.24 92.0817C548.069 92.0817 548.897 92.0817 549.892 92.0817C549.726 92.2474 549.56 92.2475 549.395 92.4132C549.726 92.4132 550.223 92.5789 550.555 92.5789C550.886 92.5789 551.383 92.2474 551.383 92.0817C553.372 92.0817 555.361 91.916 557.35 91.5845C558.344 91.4188 559.67 91.5845 560.499 91.4188C560.665 91.4188 559.836 91.7503 560.002 91.7503C560.167 91.7503 560.333 91.7503 560.499 91.7503C560.002 91.916 560.002 92.2474 560.333 92.2474C562.156 92.7446 560.665 93.7391 561.825 94.2363C562.819 94.2363 563.648 94.2363 564.642 94.2363C566.963 94.0705 569.283 94.5677 571.272 93.5733C569.283 92.4132 564.642 92.5789 562.653 91.5845C563.151 91.5845 563.814 91.5845 564.145 91.7503C564.642 91.7503 564.642 92.0817 564.974 92.0817C565.139 92.0817 565.139 91.7503 565.305 91.7503C566.797 91.916 568.786 92.0817 570.112 92.4132C571.437 92.7447 572.929 92.9104 573.758 92.4132C575.249 91.4188 576.907 91.7502 578.398 92.0817C579.89 92.4132 580.056 92.4132 581.382 92.0817C582.542 91.7502 583.205 92.0817 584.365 92.0817C586.685 92.0817 588.342 91.9159 590.828 91.9159C591.326 91.9159 591.657 91.9159 592.154 91.9159C590.166 92.0817 588.342 92.0817 586.354 92.2474C587.514 93.0761 589.834 92.9104 591.823 92.7446C594.309 92.5789 596.795 92.4132 599.281 92.4132C599.281 92.7447 599.281 93.2418 599.281 93.5733C597.458 93.5733 595.469 93.7391 593.646 93.9048C593.48 94.2363 593.314 94.8992 594.143 94.8992C595.8 94.5677 597.458 94.0705 599.281 93.9048C599.281 94.8992 599.281 95.8936 599.281 96.888C600.11 96.7223 600.938 97.2195 601.767 97.2195C603.093 97.2195 604.419 96.7223 605.579 97.551C607.402 97.3853 609.225 96.888 611.048 96.5566C611.545 96.5566 611.38 97.0538 611.545 97.2195C613.203 97.0538 615.192 97.3852 616.849 97.3852C617.678 97.3852 618.672 96.7223 619.335 96.7223C619.998 96.7223 621.324 96.888 620.495 97.2195C625.136 96.888 629.776 96.0594 634.583 95.7279C636.406 94.2363 638.56 94.8992 641.046 95.2307C640.881 95.2307 640.715 95.065 640.549 94.8992C640.715 94.8992 640.715 94.8992 640.881 94.8992C640.881 94.7335 640.715 94.7335 640.715 94.5677C640.715 94.5677 640.715 94.5677 640.881 94.5677C642.704 94.5677 644.692 94.7335 646.516 94.7335C646.847 94.7335 647.178 94.8992 647.51 94.8992C647.344 95.2307 647.013 95.3964 646.681 95.7279C648.173 95.5622 649.499 95.5621 650.99 95.3964C650.162 95.2307 649.499 95.065 648.836 94.8992C650.162 95.065 651.488 95.065 652.979 95.065C652.979 95.065 652.979 95.2307 653.145 95.2307C653.974 95.2307 654.637 95.065 655.465 95.065C656.791 95.065 657.951 95.065 659.277 95.065C661.929 95.2307 664.415 95.2307 667.067 95.3964C666.569 95.5621 666.404 95.7279 666.735 95.8936C667.564 96.3908 668.724 96.0593 669.553 96.0593C670.216 96.0593 671.044 95.8936 671.044 95.5621C674.193 95.5621 677.342 95.5621 680.657 95.5621C678.668 96.0594 676.514 96.0593 674.525 96.0593C676.845 96.2251 679 96.3908 680.989 95.5621C681.651 95.5621 682.149 95.5621 682.812 95.5621C685.961 95.5621 688.944 95.7279 692.093 95.7279C691.927 95.8936 691.596 96.0593 691.264 96.0593C692.259 96.2251 692.921 95.8936 693.75 95.7279C694.247 95.7279 694.579 95.7279 695.076 95.7279C695.573 95.8936 696.07 96.0593 696.568 96.2251C695.905 96.2251 695.242 96.2251 694.413 96.3908C696.402 96.3908 698.059 96.3908 699.882 96.888C704.523 96.7223 709.163 96.5566 713.97 96.3908C715.13 96.3908 715.793 96.3908 717.284 96.2251C718.776 95.8936 721.262 95.7279 722.92 95.7279C724.577 95.7279 725.737 95.8936 727.394 95.5621H727.229C726.897 95.7279 727.394 95.5621 727.394 95.5621C727.56 95.5621 727.726 95.3964 728.057 95.3964C730.378 95.3964 732.532 95.5622 735.018 94.8992C735.515 94.8992 735.847 94.8992 736.344 94.8992C739.99 94.8992 743.636 94.8992 747.117 94.7335C749.437 94.7335 755.072 94.7335 758.387 94.5677C760.044 94.402 763.856 94.402 765.679 94.8992C764.188 94.5677 762.365 95.3964 760.873 94.8992C759.381 94.402 754.741 95.0649 754.741 95.2307C754.741 95.3964 754.741 95.3964 754.741 95.5621C754.741 95.7279 754.741 95.5621 754.741 95.5621C753.083 95.5621 751.426 95.5622 749.769 95.7279C749.769 95.7279 749.603 95.7279 749.437 95.7279C747.946 95.5622 746.288 95.7279 744.962 95.8936C744.299 95.8936 743.802 95.7279 743.305 95.8936C743.139 95.8936 743.471 95.8936 743.139 95.8936C742.808 95.8936 741.979 95.8936 741.648 95.8936C741.648 95.8936 741.482 95.8936 741.15 95.7279C740.322 95.5622 737.836 95.3964 736.841 95.8936C736.841 95.8936 736.51 95.7279 736.841 95.8936C737.173 96.0594 735.847 95.5621 737.339 96.2251C738.83 96.888 743.139 96.7223 745.459 95.8936C746.785 95.3964 748.94 95.7279 750.432 95.7279C750.432 95.7279 750.432 95.7279 750.597 95.7279C750.763 95.7279 751.757 95.3964 752.089 95.5621C752.255 95.5621 752.255 95.5621 752.42 95.5621C753.581 95.5621 754.078 95.5621 756.398 95.5621C760.044 95.3964 767.171 95.065 771.148 95.065C773.8 95.065 775.789 95.2307 777.944 95.2307C784.407 95.0649 790.374 94.7335 796.672 94.7335C797.832 94.7335 798.826 94.8992 799.986 94.7335C801.147 94.402 801.975 95.3964 803.135 94.5677C803.301 94.5677 803.135 94.2363 804.13 94.0705C806.947 93.2419 812.251 93.4076 815.234 94.7335C815.4 94.7335 815.234 94.7335 815.4 94.7335C816.063 94.5677 817.389 94.8992 817.886 94.5677C818.383 94.2363 818.383 94.402 819.046 94.2363C819.543 94.2363 819.543 94.402 820.04 94.5677C821.035 94.5677 822.029 94.5677 823.189 94.5677C825.51 94.402 828.162 94.402 830.482 94.402C831.808 94.402 832.968 94.0705 834.128 94.0705C843.243 94.0705 852.359 94.2362 861.474 94.402C862.303 94.402 863.132 94.402 863.96 94.402C875.065 94.402 886.003 94.402 897.107 94.5677C907.217 94.7335 917.493 94.2363 927.603 93.9048C936.884 93.7391 946.165 93.2419 955.446 93.0761C955.446 93.0761 955.446 93.0761 955.612 93.2419C955.778 93.4076 955.778 94.0705 955.446 94.2363C955.446 94.2363 955.446 94.2363 955.281 94.2363C954.783 94.2363 956.606 94.0705 954.12 94.402C951.634 94.7335 946.331 94.8992 942.685 95.065C937.713 95.3964 931.249 96.2251 926.111 96.0593C925.78 96.0593 925.282 95.7279 925.282 95.7279C925.282 95.7279 923.791 95.2307 923.625 95.3964C923.625 95.3964 923.625 95.3964 923.459 95.3964C923.128 95.2307 921.802 95.0649 921.802 95.3964C921.636 95.3964 921.471 95.3964 920.476 95.2307C917.327 95.0649 912.355 95.0649 907.88 95.3964C904.565 95.5621 899.096 95.2307 895.284 95.2307C894.124 95.2307 892.964 95.5621 891.804 95.5621C889.484 95.5621 887.495 94.8992 885.34 95.8936C885.34 95.8936 885.506 95.8936 885.174 95.8936C884.843 96.0594 884.18 95.8936 884.014 95.7279C883.02 95.5622 881.694 96.0594 880.865 95.8936C880.865 96.0594 881.031 96.0594 881.197 96.3908C881.363 96.7223 882.688 97.2195 883.186 97.0538C883.517 96.888 883.186 97.0538 883.351 97.0538C883.517 97.0538 883.351 97.0538 883.517 97.0538C884.014 97.2195 885.009 97.2195 885.34 97.0538C885.672 97.0538 885.506 97.0538 885.506 97.0538C896.942 97.3852 908.377 97.0538 919.813 96.7223C919.813 96.7223 919.647 96.7223 919.979 96.7223C920.145 96.8881 920.807 96.5566 921.139 96.7223C921.47 96.8881 921.139 96.888 921.636 97.0538C923.625 97.7167 926.277 97.0537 928.597 96.888C932.078 96.3908 935.724 96.3908 939.37 96.3908C951.634 96.7223 962.904 98.5454 974.672 94.8992C974.672 94.8992 974.837 94.8992 975.003 94.8992C976.163 95.065 972.848 94.7335 976.495 95.065C982.295 95.5622 991.411 94.5677 997.709 93.739C1002.52 93.2418 1006.66 93.5733 1011.13 92.9104C1006.16 92.2474 1002.18 91.253 997.543 93.4076C997.543 93.4076 997.543 93.4076 997.377 93.4076C997.543 93.4076 997.543 93.4076 995.886 93.4076C992.074 93.4076 983.621 93.7391 979.478 93.9048C976.66 94.0705 977.323 93.9048 975.832 92.7446C975.832 92.7446 975.997 92.7446 975.832 92.7446C975.666 92.7446 976.163 92.7446 975.666 92.7446C975.334 92.5789 974.009 92.5789 973.677 92.2474C977.82 92.0817 981.798 92.0817 985.776 91.4188C985.941 91.4188 985.776 91.4188 985.942 91.4188C990.251 90.9216 995.388 90.7558 999.698 90.5901C1000.53 90.5901 1000.03 90.5901 1000.69 90.5901C1000.86 90.5901 1000.69 90.5901 1000.86 90.5901C1001.02 90.5901 1000.86 90.5901 1001.02 90.5901C1001.02 90.5901 1001.02 90.5901 1001.19 90.5901C1001.35 90.5901 1001.35 90.5901 1001.52 90.5901C1003.01 90.4244 1008.81 89.0984 1010.97 88.6012C1009.64 88.4355 1007.49 88.767 1006 88.767C1004.67 88.767 1003.51 88.6012 1002.35 88.6012C997.709 88.6012 993.068 88.767 988.428 88.9327C989.753 88.767 991.079 88.6013 992.405 88.4355C992.737 88.4355 993.068 88.1041 993.4 88.1041C1003.34 87.7726 1013.79 87.6069 1023.73 87.4411C1033.51 87.1097 1042.79 87.1096 1052.57 86.9439C1057.87 86.9439 1063.17 86.9439 1068.31 87.1096C1069.8 87.1096 1071.3 86.9439 1072.95 87.1096C1073.12 87.1096 1073.12 87.1096 1073.45 87.1096C1075.94 87.2754 1078.75 87.2754 1081.24 87.1096C1081.41 87.1096 1081.24 87.1096 1081.24 87.1096C1081.57 87.1096 1082.07 86.9439 1082.4 87.1096C1082.9 87.2754 1084.22 87.4411 1084.22 87.1096C1084.72 86.281 1085.55 85.7838 1086.54 85.4523C1079.91 85.618 1073.28 85.7838 1066.49 85.7838C1048.92 85.7838 1031.35 85.7838 1013.79 85.9495C1005.17 86.1153 996.383 85.7838 987.765 86.6124C987.599 86.6124 987.433 86.6124 987.267 86.6124C980.969 86.281 975.334 86.281 969.037 86.7782C964.893 87.1097 959.921 87.1096 955.778 87.1096C954.618 87.1096 955.115 87.1096 954.783 86.4467C957.435 86.4467 960.087 86.6124 962.573 86.4467C971.854 85.9495 980.969 85.4523 990.251 85.1208C1001.69 84.6236 1013.29 84.4579 1024.89 84.2922C1030.52 84.1264 1036.16 84.2921 1041.63 83.9607C1042.13 83.9607 1042.79 83.9607 1042.95 83.7949C1042.95 83.7949 1042.95 83.7949 1043.12 83.7949C1044.94 83.9607 1046.43 83.9607 1048.42 83.9607C1050.41 83.9607 1053.06 83.7949 1055.05 83.7949C1054.06 83.6292 1053.06 83.4635 1052.24 82.9663C1052.07 82.9663 1052.24 82.9663 1052.07 82.9663C1051.9 82.8005 1051.74 82.8005 1051.57 82.6348C1050.58 81.4747 1046.6 81.6404 1046.43 81.8061C1046.27 81.9719 1046.27 81.9718 1046.27 81.9718C1046.27 81.9718 1046.27 81.9718 1046.1 81.9718C1045.44 81.8061 1042.29 81.8061 1041.79 82.1376C1041.13 82.469 1041.79 82.1376 1041.63 82.1376C1041.46 82.1376 1041.46 82.1376 1041.46 81.9718C1041.3 81.9718 1040.63 81.9719 1040.63 81.8061C1040.63 81.6404 1041.13 81.3089 1041.63 81.3089C1044.94 81.6404 1048.92 81.4746 1052.07 81.3089C1055.22 81.1432 1057.04 81.1432 1059.86 81.9718C1060.69 81.8061 1061.35 81.3089 1062.01 80.8117C1068.48 80.4802 1074.94 80.646 1081.41 80.4802C1085.38 80.3145 1089.19 79.4858 1093.17 79.3201C1092.68 79.6516 1092.01 79.8173 1091.51 79.983C1096.98 79.6516 1102.29 79.4858 1107.76 79.6515C1108.59 78.8229 1109.75 78.4914 1110.91 77.9942C1106.93 77.9942 1103.12 77.8285 1099.14 77.3313C1101.13 77.3313 1103.12 77.3313 1105.11 77.3313C1098.48 77.1655 1092.18 77.6627 1085.55 78.1599C1085.55 77.9942 1085.55 77.6627 1085.88 77.497C1083.06 77.3313 1080.41 78.1599 1077.59 78.1599C1070.3 78.3257 1062.84 78.3257 1055.55 78.8229C1061.85 78.1599 1068.15 77.3313 1074.28 76.5026C1087.87 76.1711 1101.46 75.5081 1115.05 74.5137C1115.05 74.6795 1115.22 74.5137 1115.05 74.6795C1114.88 74.8452 1114.05 75.011 1113.89 75.1767C1113.72 75.3425 1113.56 75.3424 1113.72 75.5082C1113.89 75.6739 1113.72 75.6739 1114.22 75.6739C1114.72 75.8396 1115.38 76.0054 1116.38 76.1711C1117.2 76.3368 1118.86 76.6683 1119.86 76.9998C1119.86 76.9998 1119.86 76.9998 1120.02 76.9998C1120.19 76.9998 1120.35 77.1655 1120.52 77.1655C1120.68 77.1655 1120.85 77.3313 1121.02 77.497C1121.18 77.6627 1121.51 77.8285 1121.51 77.9942C1121.51 77.9942 1121.51 77.9942 1121.35 77.9942C1120.85 79.1543 1122.67 79.8173 1122.84 79.1544C1122.84 78.9886 1122.84 78.9886 1122.84 78.9886C1123.67 78.8229 1124.66 78.6572 1125.49 78.4914C1125.66 78.4914 1125.32 78.1599 1125.32 78.1599C1125.32 78.1599 1124.99 78.1599 1125.66 77.9942C1126.32 77.8285 1128.14 77.1655 1129.14 76.8341C1129.14 76.8341 1129.14 76.8341 1129.3 76.8341C1129.47 76.8341 1130.13 76.8341 1130.46 76.8341C1130.79 76.8341 1131.13 76.5026 1131.46 76.3368C1132.78 75.6739 1133.94 75.3424 1135.6 75.3424C1137.26 75.5081 1139.25 75.6739 1141.07 75.8397C1143.89 76.3369 1146.54 77.1655 1149.03 75.5082C1149.03 75.5082 1148.86 75.5081 1149.36 75.3424C1149.85 75.1767 1152.01 75.5082 1152.67 75.6739C1155.49 76.6683 1157.81 76.3368 1160.46 75.5082C1163.11 74.6795 1165.6 74.1823 1167.75 72.8564H1167.59C1166.26 72.8564 1164.27 73.0221 1163.11 73.0221C1162.12 73.0221 1161.79 72.6907 1160.96 72.6907C1160.96 72.6907 1160.96 72.6907 1160.96 72.5249C1160.96 72.1935 1162.28 71.862 1162.62 71.5305C1162.95 71.3648 1162.45 70.8676 1161.95 71.0333C1158.8 71.1991 1156.32 70.5361 1153 70.7018C1147.53 70.8676 1141.4 71.3648 1135.93 71.6963C1132.78 71.862 1130.13 72.1934 1126.98 72.8564C1123.83 73.5193 1120.52 73.6851 1117.2 73.1879C1116.87 73.1879 1116.38 73.1879 1116.38 73.0221C1116.38 73.0221 1116.38 72.6907 1116.71 72.6907C1117.2 72.8564 1119.19 73.0221 1120.02 73.0221C1120.68 72.0277 1119.19 72.1934 1121.68 72.0277C1122.18 72.0277 1122.51 71.6963 1121.68 71.6963C1121.02 71.5305 1120.02 70.8676 1119.03 70.8676C1115.71 71.0333 1112.56 71.3648 1109.41 70.5361C1108.75 70.3704 1107.76 70.3704 1107.43 70.3704C1107.09 70.3704 1107.26 70.2047 1107.26 70.2047C1107.26 70.2047 1106.93 69.8732 1107.09 69.8732C1109.25 69.8732 1111.57 70.0389 1113.72 69.8732C1113.89 69.8732 1113.39 69.7074 1113.89 70.0389C1114.39 70.2046 1115.71 70.3704 1116.54 70.3704C1123.17 70.3704 1129.97 70.3704 1136.59 69.8732C1137.09 69.8732 1137.42 69.8732 1137.92 69.8732C1139.25 70.0389 1140.24 69.8732 1141.73 69.8732C1143.22 69.8732 1145.21 70.0389 1146.7 69.8732C1146.7 69.8732 1146.7 69.8732 1146.87 69.8732C1147.2 69.8732 1147.53 69.8732 1148.03 69.8732C1150.02 69.8732 1152.17 69.8732 1154.33 69.8732C1154.49 69.8732 1154.33 69.8732 1154.33 69.8732C1154.49 69.8732 1154.16 69.8732 1154.49 69.8732C1154.83 70.0389 1156.32 69.8732 1156.65 69.8732H1156.81C1156.81 69.8732 1156.81 69.8732 1156.98 69.8732C1157.48 69.8732 1158.47 69.8732 1159.3 69.8732C1159.96 69.8732 1160.96 69.8732 1161.79 69.8732C1163.78 69.8732 1165.93 69.8732 1168.08 69.8732C1168.58 69.8732 1168.91 70.0389 1169.41 69.8732C1169.41 69.8732 1169.41 69.8732 1169.58 69.8732C1169.74 69.8732 1170.4 69.8732 1170.74 69.8732C1171.07 69.8732 1171.57 69.7074 1172.06 69.7074C1172.39 69.7074 1172.89 69.7074 1173.22 69.7074C1174.71 69.8732 1176.37 69.8732 1178.03 69.7074C1178.19 69.7074 1178.19 69.7074 1178.36 69.7074C1178.53 69.7074 1178.53 69.7074 1178.53 69.7074C1180.51 69.7074 1182.5 69.7074 1184.49 69.7074C1188.8 69.5417 1193.28 69.5417 1197.59 69.7074C1198.75 69.7074 1199.74 69.7074 1200.9 69.5417C1200.9 69.5417 1200.9 69.376 1200.73 69.376C1200.57 69.376 1200.9 69.376 1201.56 69.376C1202.23 69.376 1203.72 69.376 1204.55 69.376C1203.72 69.376 1202.89 69.3759 1202.23 69.5417C1203.55 69.7074 1204.88 69.8732 1206.2 69.8732C1211.34 69.8732 1216.81 69.8732 1221.95 69.8732C1229.24 70.0389 1236.2 69.8732 1243.49 70.0389C1244.16 70.0389 1245.15 70.0389 1245.81 70.0389C1248.13 69.8732 1250.29 69.8732 1252.61 69.8732C1252.78 69.8732 1252.78 69.8732 1252.78 69.7074C1252.78 69.5417 1252.61 69.5417 1252.44 69.5417C1249.46 69.3759 1246.64 69.2102 1243.66 69.2102C1243 69.2102 1242.5 69.3759 1241.84 69.5417C1242.5 69.3759 1242.83 69.2102 1243.49 69.2102C1244.32 69.2102 1246.81 69.2102 1246.81 68.5473C1246.81 67.8844 1245.81 68.3815 1245.48 68.2158C1251.45 68.2158 1257.42 68.2158 1263.55 68.2158C1265.54 68.2158 1268.35 68.3815 1268.85 66.5585C1269.02 66.227 1268.52 66.0613 1268.52 65.7298C1268.52 65.3983 1267.69 65.564 1267.69 65.564C1267.69 64.5696 1265.21 64.9011 1264.38 65.0669C1263.38 65.0669 1262.39 65.0669 1261.56 65.0669C1263.71 64.9011 1266.37 65.2326 1268.35 64.7354C1269.85 64.4039 1268.35 63.9067 1267.36 63.9067C1257.42 63.9067 1247.31 63.9067 1237.2 63.9067C1229.08 63.9067 1221.12 64.0724 1213.16 64.0724C1213.16 64.0724 1213.16 64.0724 1213.16 63.9067C1213.16 63.9067 1213 63.9067 1213 64.0724C1209.19 64.0724 1205.38 64.0724 1201.56 64.0724C1202.23 63.2438 1203.22 62.4151 1202.39 61.7521C1202.56 61.7521 1202.56 61.5864 1202.56 61.5864C1202.56 61.5864 1202.56 61.5864 1202.56 61.4207C1202.56 61.4207 1202.56 61.4207 1202.72 61.4207C1203.55 61.5864 1204.55 61.5864 1205.38 61.5864C1205.71 61.5864 1206.2 61.5864 1206.54 61.5864C1206.87 61.5864 1207.36 61.5864 1207.7 61.5864C1210.02 61.5864 1212.17 61.2549 1214.49 61.2549C1214.99 61.2549 1215.32 61.2549 1215.82 61.2549C1217.81 61.0892 1219.79 61.0892 1221.78 61.0892C1226.09 60.7577 1230.4 60.7577 1234.71 60.4262C1236.37 60.2605 1237.86 60.2605 1239.02 59.7633C1239.19 59.7633 1239.52 59.7633 1239.68 59.7633C1239.85 59.929 1240.01 59.929 1240.35 59.7633C1240.84 59.7633 1241.51 59.7633 1242 59.7633C1244.49 59.7633 1246.97 59.2661 1249.46 59.4319C1250.46 59.4319 1251.12 59.2661 1250.12 59.1004C1249.13 58.9346 1247.47 59.2661 1246.64 58.7689C1249.13 58.6031 1251.62 58.6032 1254.1 58.4374C1255.59 58.2717 1257.42 58.7689 1258.58 57.9402C1262.89 57.7745 1267.36 57.7745 1271.67 57.443C1275.48 57.1115 1279.29 56.7801 1283.11 56.4486C1285.76 56.2829 1287.08 55.2885 1289.4 54.957C1290.56 54.7913 1290.4 54.294 1290.73 53.9626C1290.56 53.7968 1290.4 53.6311 1290.23 53.4654C1290.73 52.8024 1291.23 52.3052 1289.4 51.808C1288.24 51.4766 1289.57 51.3108 1290.89 51.1451C1291.89 50.9794 1292.88 50.6479 1292.05 50.3164C1291.89 50.3164 1291.72 50.1507 1291.72 49.9849C1293.55 49.9849 1294.87 49.9849 1294.87 49.6534C1294.87 49.6534 1296.7 49.6535 1295.87 49.4877C1295.37 49.4877 1294.54 49.322 1293.71 49.4877C1293.05 49.4877 1292.39 49.4877 1291.89 49.4877V49.322C1292.05 49.1563 1291.89 48.9905 1291.39 48.8248C1291.23 48.659 1290.56 48.6591 1289.9 48.4933C1292.88 47.9961 1292.72 47.9961 1291.39 47.3331C1290.4 46.8359 1289.24 46.6702 1287.25 46.6702C1285.43 46.6702 1283.77 46.6702 1281.94 46.6702C1281.45 46.6702 1280.95 46.6702 1280.45 46.6702C1279.79 46.6702 1279.13 46.6702 1278.63 46.5045C1279.29 46.3387 1279.96 46.173 1280.78 46.173C1282.28 46.0073 1283.77 46.173 1285.92 45.8415C1283.11 45.5101 1280.45 45.8415 1277.97 45.6758C1276.64 45.6758 1275.32 45.6758 1274.98 45.1786C1275.65 45.1786 1276.31 45.1786 1277.3 45.1786C1278.96 45.1786 1280.78 45.1786 1282.44 45.3444C1283.27 45.3444 1284.43 45.3444 1284.93 45.3444C1285.26 45.3444 1284.76 45.1786 1284.27 45.1786C1282.61 45.1786 1280.95 45.1786 1279.13 45.0129C1278.8 45.0129 1278.3 45.0129 1277.97 45.0129C1275.98 45.0129 1274.32 45.0129 1273.49 44.8471C1272.66 44.6814 1274.49 44.5157 1275.48 44.5157C1277.97 44.3499 1278.3 44.3499 1274.98 44.1842C1271.67 44.1842 1268.52 44.0184 1265.04 44.0184C1264.87 44.0184 1264.71 44.0184 1264.38 44.0184C1262.06 43.8527 1259.24 44.0184 1257.08 43.8527C1256.75 43.687 1257.08 43.687 1258.58 43.687C1261.89 43.687 1264.54 43.687 1266.7 43.3555C1269.51 43.5212 1272.5 43.5212 1275.65 43.3555C1276.14 43.3555 1277.14 43.3555 1276.81 43.5213C1276.31 43.687 1276.14 43.687 1277.97 43.687C1279.29 43.687 1280.12 43.5213 1279.79 43.5213C1279.29 43.3555 1278.13 43.3555 1276.48 43.3555C1273.49 43.1898 1276.31 43.1898 1277.3 43.024C1278.13 43.024 1279.79 43.0241 1279.46 42.8583C1278.46 42.6926 1278.96 42.3611 1274.65 42.3611C1272.5 42.3611 1270.67 42.1953 1268.69 42.1953C1268.35 42.1953 1268.19 42.1954 1268.19 42.0296C1268.35 42.0296 1268.52 42.0296 1268.69 42.1953C1268.19 42.0296 1269.18 42.0296 1271.17 42.0296C1272 42.0296 1273.33 42.1954 1273.49 42.0296C1273.82 41.8639 1272.17 41.8639 1271.01 41.8639V41.6982C1271.17 41.6982 1271.5 41.6982 1271.84 41.6982C1273 41.6982 1274.32 41.6981 1275.15 41.5324C1276.64 41.5324 1278.13 41.3667 1279.62 41.3667C1278.8 41.2009 1275.81 41.201 1276.97 41.0352C1277.64 40.8695 1279.46 41.0352 1280.29 41.0352C1284.6 41.3667 1283.11 40.8695 1283.77 40.7037C1284.27 40.538 1282.94 40.538 1283.27 40.3723C1285.92 40.0408 1285.09 39.8751 1279.96 39.8751V39.7093C1280.45 39.7093 1281.12 39.7093 1281.61 39.7093H1281.45H1281.61C1282.94 39.7093 1284.27 39.7093 1285.43 39.7093C1286.25 39.7093 1286.92 39.7093 1287.75 39.7093C1288.08 39.5436 1288.24 39.2121 1288.57 39.0464C1290.07 39.0464 1292.05 39.0464 1293.38 39.0464C1295.04 39.2121 1296.7 39.2121 1298.02 39.0464C1299.35 38.8806 1298.85 38.3835 1297.03 38.3835C1294.54 38.2177 1292.22 38.2177 1289.57 38.052C1291.06 36.3946 1292.05 34.5716 1294.04 32.9142C1280.45 33.4114 1267.86 33.0799 1255.1 30.9254C1256.26 30.9254 1257.25 30.9253 1257.58 30.7596C1259.07 30.5939 1261.73 30.5939 1263.88 30.5939C1267.03 30.5939 1270.01 30.9253 1273.66 30.5939C1272 30.4281 1268.52 30.4282 1267.19 30.2624C1266.86 30.2624 1266.53 30.4282 1266.37 30.4282C1264.21 30.4282 1263.55 30.2624 1262.39 30.0967C1262.89 29.9309 1263.05 29.9309 1263.71 29.7652C1266.2 29.4337 1266.03 29.4338 1262.06 29.4338C1260.9 29.4338 1259.74 29.4338 1258.58 29.4338C1256.75 29.268 1254.76 29.4338 1252.78 29.4338C1250.95 29.268 1248.96 29.4338 1247.14 29.4338C1246.97 29.4338 1246.64 29.4338 1246.48 29.4338C1246.15 29.4338 1245.81 29.268 1245.65 29.268C1245.98 29.268 1247.14 29.268 1248.13 29.268C1250.12 29.268 1252.78 29.268 1253.6 29.1023C1254.1 29.1023 1254.6 29.1023 1255.26 29.1023C1258.08 29.268 1261.06 29.268 1264.21 29.1023C1264.71 29.1023 1265.7 29.1023 1265.37 29.268C1265.21 29.268 1264.38 29.4338 1265.87 29.4338C1266.86 29.4338 1267.86 29.4337 1268.19 29.268C1270.01 28.9365 1267.03 28.9365 1264.87 28.9365C1261.89 28.7708 1264.71 28.7708 1265.7 28.6051C1266.37 28.6051 1266.86 28.6051 1267.53 28.6051C1267.36 28.4393 1268.02 28.1079 1264.21 27.9421C1261.73 27.9421 1259.4 27.7764 1257.25 27.7764C1256.92 27.6107 1257.91 27.6107 1259.57 27.6107C1260.56 27.6107 1261.89 27.7764 1262.22 27.6107C1262.39 27.4449 1260.73 27.4449 1259.57 27.4449C1259.24 27.2792 1260.23 27.2792 1261.39 27.2792C1262.55 27.2792 1263.71 27.2792 1264.38 27.1135C1265.7 27.1135 1266.86 26.9477 1268.19 26.9477C1267.86 26.782 1264.87 26.782 1265.37 26.6162C1265.87 26.4505 1267.36 26.4505 1268.35 26.6162C1271.5 26.9477 1271.5 26.9477 1272.5 26.4505C1272.33 26.2847 1272.17 26.119 1271.84 25.9533C1273.82 25.7876 1274.16 25.6218 1271.67 25.4561C1271.67 25.4561 1271.67 25.4561 1271.5 25.4561C1271.01 25.4561 1270.34 25.2904 1269.85 25.2904C1270.51 25.2904 1271.17 25.2904 1271.67 25.2904C1273.16 25.2904 1275.15 25.2904 1275.15 25.1246C1275.15 24.9589 1273.33 24.9589 1271.5 24.9589C1270.51 24.9589 1269.35 24.7931 1268.35 24.7931C1267.69 24.6274 1265.21 24.6274 1268.69 24.6274C1271.5 24.6274 1274.32 24.4617 1277.14 24.6274C1278.63 24.7932 1280.62 24.6274 1282.11 24.7931C1283.6 24.9589 1285.09 24.9589 1286.42 24.7931C1287.75 24.6274 1287.25 24.1302 1285.76 24.1302C1282.11 23.9645 1278.8 23.7988 1274.82 23.7988C1270.34 23.633 1266.2 23.4673 1262.39 23.3015C1262.06 23.3015 1261.73 23.3015 1261.39 23.3015C1272 23.1358 1282.44 22.8043 1293.05 21.9757C1293.55 20.8155 1295.7 20.484 1296.53 19.4896C1292.72 19.4896 1289.4 19.3239 1286.09 17.8323C1289.4 17.998 1289.07 17.0036 1289.4 15.0148C1293.55 14.6833 1298.19 14.6833 1298.52 11.0371C1305.48 10.0427 1310.78 7.88816 1316.09 4.57345C1317.74 5.07066 1318.9 4.73916 1320.4 4.24196C1320.56 4.24196 1320.4 4.07621 1320.89 4.07621C1321.22 4.07621 1321.72 4.24198 1322.05 4.57345C1322.38 4.73918 1323.54 4.73918 1323.88 4.57345C1324.37 4.57345 1325.04 4.40768 1325.04 4.07621C1324.87 3.74474 1324.21 3.74476 1324.04 3.57903C1323.88 3.41329 1324.54 3.57903 1324.54 3.57903C1317.58 1.75594 1309.95 2.08739 1302.83 0.761506C1302.83 0.761506 1307.47 0.26431 1306.47 0.0985744C1305.48 -0.0671609 1298.85 0.927271 1298.19 -0.398611C1316.58 -0.730082 1335.15 -0.564367 1353.54 -0.730102C1356.86 -2.71893 1354.21 -3.21614 1351.22 -4.21055C1345.92 -3.71335 1341.44 -3.2161 1336.64 -5.20493C1328.19 -4.87346 1320.4 -4.54201 1312.44 -6.36509C1323.21 -8.18818 1333.99 -8.68541 1344.92 -9.18262C1356.69 -11.1714 1368.46 -12.8288 1380.06 -15.4805C1379.73 -16.1435 1379.4 -16.6407 1378.9 -16.9721C1380.56 -17.3036 1382.21 -17.4694 1383.87 -17.8008C1386.52 -17.4694 1388.18 -18.4638 1389.34 -20.1211C1391.66 -20.9498 1393.82 -21.7785 1396.14 -22.7729C1395.64 -22.7729 1395.97 -23.6016 1396.14 -24.596ZM-42.4464 -77.797H-42.1149C-42.2806 -77.797 -42.4464 -77.797 -42.4464 -77.797ZM-42.2806 -71.6648C-42.4463 -71.6648 -42.2806 -71.6648 -42.2806 -71.6648V-71.6648ZM-38.303 -69.8417C-37.9715 -69.8417 -37.8058 -69.8417 -37.4743 -69.8417C-37.4743 -69.8417 -37.4743 -69.8417 -37.3086 -69.8417C-37.64 -69.8417 -37.9715 -69.8417 -38.303 -69.8417ZM-43.4408 66.227C-42.7778 66.0612 -41.9491 65.8955 -41.2862 65.8955C-42.1149 66.0613 -42.7778 66.0612 -43.4408 66.227ZM-31.5078 62.9123C-35.8169 61.2549 -39.9603 61.0892 -44.7666 62.9123C-46.7555 63.7409 -51.7275 63.7409 -50.0702 59.7633C-47.7499 59.7633 -45.4296 59.7633 -43.275 59.5976C-39.4631 59.5976 -35.6512 59.5976 -31.8393 59.5976C-30.3477 60.592 -28.8561 61.5864 -27.5302 62.7466C-28.8561 62.9123 -30.1819 62.9123 -31.5078 62.9123ZM137.542 90.5901C137.045 90.7558 136.879 90.4243 136.216 90.4243C135.388 90.4243 133.399 90.2586 132.57 90.0929C131.742 90.0929 131.079 90.0929 130.416 90.2586C130.25 90.2586 130.416 89.9272 130.581 89.9272C133.233 89.9272 136.216 89.9272 139.034 89.9272C138.205 90.0929 138.039 90.5901 137.542 90.5901ZM299.963 96.5566C301.786 97.0538 303.443 97.0537 305.266 96.888C303.278 97.0537 301.62 97.2195 299.963 96.5566ZM311.73 94.2363C311.564 94.2363 311.399 94.0705 311.73 94.2363C311.564 94.0705 312.393 94.2363 312.393 94.2363C312.227 94.2363 311.73 94.2363 311.73 94.2363ZM754.409 96.888C754.244 96.888 754.078 96.888 754.078 96.888C754.078 96.888 754.906 96.888 754.409 96.888ZM920.476 96.888C920.31 96.888 920.31 96.888 920.476 96.888C920.31 96.888 920.31 96.888 920.476 96.888C920.31 96.888 920.31 96.888 920.476 96.888C920.31 96.888 920.31 96.888 920.476 96.888C920.31 96.888 920.31 96.888 920.476 96.888ZM975.334 90.7558C975.334 90.7558 975.666 90.7558 975.832 90.7558C978.152 90.5901 980.472 90.5901 982.793 90.5901C980.969 90.5901 976.826 90.7558 975.5 90.7558C974.672 90.7558 975.334 90.7558 975.334 90.7558ZM1148.03 76.0054C1148.69 75.8397 1150.35 75.5082 1150.85 75.5082C1151.35 75.5082 1151.68 75.1767 1152.01 75.3424C1152.17 75.3424 1152.34 75.6739 1152.34 75.8397C1152.34 76.6683 1151.18 76.0054 1150.19 76.0054C1149.36 76.0054 1148.03 76.1711 1147.2 76.6683C1147.04 76.1711 1147.37 76.1711 1148.03 76.0054ZM1124.5 78.1599C1124.66 78.1599 1124.5 77.9942 1124.5 78.1599C1124.66 78.1599 1124.5 78.1599 1124.5 78.1599ZM1128.31 75.5082C1126.98 76.0054 1125.82 76.8341 1124.5 77.497C1124.16 77.6627 1124.16 77.8285 1124.5 77.9942C1124.5 77.9942 1124.5 77.9942 1124.66 77.9942C1124.16 77.6627 1124.33 77.497 1124.83 77.3313C1122.51 75.6739 1126.49 75.6739 1128.31 75.5082ZM1120.85 79.4858C1120.68 79.4858 1120.85 79.4858 1120.85 79.4858V79.4858ZM1117.87 73.0221H1118.2L1117.7 73.1879C1117.54 73.1879 1117.87 73.0221 1117.87 73.0221ZM1250.95 66.0613C1252.61 66.0613 1254.43 66.0613 1256.09 66.0613C1253.6 66.0613 1251.12 66.0613 1248.63 66.0613C1249.46 66.0613 1250.29 66.0613 1250.95 66.0613ZM1208.69 70.7018C1208.69 70.7018 1208.86 70.7018 1208.69 70.7018V70.7018ZM1208.19 70.7018C1208.36 70.7018 1208.69 70.7018 1208.52 70.7018C1208.36 70.7018 1208.19 70.7018 1207.53 70.7018C1206.87 70.7018 1205.04 70.7018 1204.38 70.7018C1205.54 70.7018 1207.03 70.7018 1208.19 70.7018ZM1311.94 -32.717C1310.78 -32.717 1309.62 -32.717 1308.46 -32.717C1309.79 -32.8827 1310.95 -32.8827 1311.94 -32.717ZM1245.32 24.4617C1245.48 24.4617 1245.48 24.4617 1245.32 24.4617V24.4617ZM219.747 -88.7356H219.581H219.747ZM206.157 -88.5698C205.991 -88.5698 205.991 -88.5698 205.825 -88.5698C205.991 -88.5698 206.157 -88.5698 206.157 -88.5698ZM220.41 -89.73C220.576 -89.73 220.576 -89.73 220.41 -89.73V-89.73ZM164.06 -87.7412C164.06 -87.7412 163.894 -87.7412 164.06 -87.7412C163.894 -87.7412 163.894 -87.7412 163.894 -87.7412C163.894 -87.7412 163.894 -87.7412 164.06 -87.7412ZM152.458 -89.73H152.293C152.293 -89.73 152.458 -89.73 152.458 -89.73ZM153.287 -87.0782C153.121 -87.0782 153.121 -87.0782 152.956 -87.0782C153.121 -87.0782 153.121 -87.0782 153.287 -87.0782ZM183.119 -88.0726C183.285 -88.0726 183.285 -88.0726 183.119 -88.0726C183.285 -88.0726 183.285 -88.0726 183.119 -88.0726C183.285 -88.0726 183.285 -88.0726 183.119 -88.0726ZM244.276 -90.8901C245.602 -91.0559 247.093 -91.0559 248.419 -90.8901C247.093 -90.8901 245.767 -90.8901 244.276 -90.8901ZM30.8087 -67.3557C30.9744 -67.3557 31.1401 -67.3557 31.3059 -67.3557C31.1401 -67.3557 31.1401 -67.3557 30.9744 -67.3557C30.9744 -67.3557 30.8087 -67.3557 30.8087 -67.3557ZM341.728 90.0929H342.225H341.728ZM325.32 89.9272C328.801 89.7614 332.116 89.7614 335.596 89.5957C337.253 89.5957 338.745 89.5957 340.402 89.5957C340.237 89.7614 340.237 89.9272 340.568 90.0929C335.43 90.0929 330.458 90.0929 325.32 89.9272ZM326.149 91.5845C326.149 91.7502 326.149 91.7502 326.149 91.5845V91.5845ZM535.804 -91.0559C535.639 -91.0559 535.639 -91.0559 535.804 -91.0559C535.639 -91.0559 535.473 -91.0559 535.473 -91.0559C535.473 -91.0559 535.639 -91.0559 535.804 -91.0559ZM325.983 92.0817C326.149 91.916 326.149 91.7503 326.149 91.7503C328.967 91.7503 331.95 91.4188 334.602 91.5845C337.253 91.7502 339.739 91.916 342.225 92.0817C342.391 92.0817 342.225 92.2474 342.06 92.2474C336.756 92.5789 331.453 92.7446 325.983 92.7446C325.652 92.7446 325.32 92.7446 324.989 92.7446C325.652 92.4132 325.818 92.2474 325.983 92.0817ZM1265.37 -84.9236C1267.69 -85.0894 1270.01 -84.9236 1272.33 -84.9236C1269.02 -84.9236 1265.54 -84.9236 1262.22 -84.9236C1263.38 -84.9236 1264.38 -84.9236 1265.37 -84.9236ZM1271.67 -69.5103C1273.66 -69.3445 1275.65 -69.0131 1277.47 -68.6816C1277.97 -68.6816 1278.63 -68.8473 1278.96 -69.013C1279.29 -69.1788 1279.62 -69.3445 1280.12 -69.5103C1280.62 -69.5103 1281.12 -69.5103 1281.61 -69.5103C1282.94 -69.8417 1284.1 -70.0075 1285.09 -70.339C1286.25 -70.1732 1287.41 -69.5103 1288.41 -68.5159C1291.56 -69.8417 1294.87 -70.6704 1298.68 -70.1732C1299.18 -70.1732 1300.01 -70.1732 1300.34 -70.0075C1304.98 -67.8529 1309.29 -67.6872 1314.43 -69.5103C1316.58 -70.339 1321.39 -70.1732 1319.73 -66.3613C1317.41 -66.3613 1315.09 -66.3613 1312.94 -66.3613C1295.54 -66.527 1278.13 -66.6928 1260.73 -66.8585C1260.4 -67.3557 1259.9 -67.6872 1259.24 -68.0187C1259.24 -68.0187 1259.24 -68.0186 1259.24 -68.1844C1258.91 -69.013 1258.08 -69.3445 1257.08 -69.676C1261.89 -69.5103 1266.86 -69.5103 1271.67 -69.5103ZM1254.6 -84.7579C1251.28 -84.7579 1247.97 -84.7579 1244.65 -84.9236C1247.8 -84.7579 1251.28 -84.7579 1254.6 -84.7579ZM1049.58 -93.8733C1050.25 -93.8733 1050.25 -93.7076 1051.08 -93.7076C1051.9 -93.7076 1054.06 -93.5419 1054.89 -93.5419C1055.88 -93.5419 1056.21 -93.7076 1057.04 -93.7076C1056.88 -92.216 1054.56 -92.5475 1052.73 -92.5475C1050.91 -92.5475 1048.09 -92.5475 1046.1 -91.8845C1047.43 -92.7132 1049.09 -92.7132 1049.58 -93.8733ZM1031.02 -92.5475C1031.52 -92.5475 1032.02 -92.879 1032.68 -92.879C1036.16 -92.879 1039.14 -92.7132 1042.13 -91.3873C1040.97 -91.3873 1039.97 -91.3873 1038.81 -91.3873C1030.19 -91.3873 1021.74 -91.5531 1013.12 -91.5531C1019.09 -91.7188 1025.06 -92.216 1031.02 -92.5475ZM880.865 -94.702C878.876 -95.0335 877.053 -95.0335 875.065 -94.8678C877.053 -95.1992 878.876 -95.1992 880.865 -94.702ZM718.776 -91.8845C718.776 -91.8845 718.942 -91.8845 718.776 -91.8845C718.942 -91.8845 718.942 -91.8845 718.776 -91.8845C718.942 -91.8845 718.942 -91.8845 718.776 -91.8845C718.776 -91.8845 718.61 -91.8845 718.776 -91.8845ZM708.169 -92.3817C708.169 -92.3817 708.335 -92.3817 708.169 -92.3817C708.335 -92.216 708.335 -92.3817 708.169 -92.3817C708.335 -92.3817 708.335 -92.3817 708.169 -92.3817C708.169 -92.216 708.169 -92.3817 708.169 -92.3817ZM708.335 -91.7188C708.169 -91.7188 708.169 -91.7188 708.335 -91.7188C708.169 -91.7188 708.003 -91.7188 708.003 -91.7188C708.003 -91.7188 708.169 -91.7188 708.335 -91.7188ZM558.676 -93.3762H559.836L558.676 -93.2104V-93.3762ZM489.564 -94.2048C489.73 -94.2048 490.227 -94.2048 490.393 -94.2048C490.559 -94.2048 490.393 -94.2048 490.393 -94.2048C490.393 -94.2048 490.393 -94.2048 490.227 -94.2048C490.061 -94.2048 489.398 -94.0391 489.398 -94.0391C489.398 -94.0391 489.398 -94.2048 489.564 -94.2048ZM-1.01252 -81.9404C-1.17825 -81.9404 -1.17825 -81.9404 -1.01252 -81.9404C-1.17825 -81.9404 -1.17825 -81.9404 -1.01252 -81.9404C-1.01252 -81.9404 -1.50973 -82.1062 -1.01252 -81.9404ZM-11.1224 -83.2663C-11.1224 -83.2663 -11.2881 -83.2663 -11.1224 -83.2663C-11.2881 -83.2663 -11.4538 -83.2663 -11.6196 -83.2663C-11.4538 -83.2663 -11.4538 -83.2663 -11.1224 -83.2663ZM-13.9399 -81.9404C-14.1056 -81.7747 -14.1056 -81.7747 -13.9399 -81.9404C-14.1056 -81.9404 -14.1056 -81.9404 -14.2713 -81.9404C-14.1056 -81.9404 -14.1056 -81.9404 -13.9399 -81.9404ZM162.734 91.4188C163.065 91.253 162.9 91.4188 162.734 91.4188V91.4188ZM181.296 89.4299C173.175 89.5957 165.054 89.5957 156.933 89.9272C156.27 89.9272 155.773 90.0929 155.11 90.0929C153.453 90.0929 151.961 89.9271 150.304 89.7614C153.95 89.7614 156.768 89.5957 160.745 89.5957C164.723 89.4299 169.363 88.767 173.673 88.6012C174.998 88.6012 176.49 88.4355 177.982 88.4355C184.445 88.2698 191.075 88.104 197.538 87.9383C198.036 87.9383 198.533 88.1041 199.03 88.1041C193.064 88.9327 187.263 89.4299 181.296 89.4299ZM375.372 93.739C367.251 93.739 359.296 93.9048 351.341 94.8992C350.346 95.065 349.518 95.065 348.523 94.8992C347.695 94.8992 347.529 94.8992 346.535 94.8992C345.54 94.8992 343.717 94.7335 342.888 94.7335C342.06 94.5677 341.728 94.5677 340.9 94.5677C340.237 94.5677 339.905 94.5677 339.242 94.7335C338.414 94.8992 337.585 95.2307 336.59 95.2307C334.104 95.0649 332.281 94.2363 329.63 94.0705C325.486 93.7391 320.846 94.0705 316.702 94.0705C320.846 93.5733 324.16 93.4076 328.635 93.2419C333.11 93.2419 338.911 93.0761 343.551 92.7446C343.883 92.7446 344.38 92.7446 344.877 92.9104C345.374 93.0761 345.706 93.0761 346.203 93.0761C347.363 93.2419 348.689 93.4076 350.015 93.4076C350.181 93.4076 350.512 93.4076 350.844 93.4076C351.175 93.4076 351.341 93.5733 351.507 93.5733C351.838 93.5733 352.17 93.4076 352.501 93.4076C355.484 93.4076 358.633 93.4076 361.616 93.4076C364.765 93.4076 367.749 93.2419 370.898 93.2419C372.555 93.2419 374.212 93.4076 375.87 93.4076C376.035 93.4076 376.698 93.5733 376.533 93.5733C376.367 93.739 375.704 93.739 375.372 93.739ZM383.991 93.739C382.665 93.739 380.842 93.739 379.516 93.739C379.35 93.739 379.35 93.739 379.682 93.5733C380.013 93.4076 382.002 93.5733 382.665 93.5733C383.328 93.5733 384.156 93.739 384.654 93.739C384.654 93.739 384.156 93.739 383.991 93.739ZM489.398 94.2363C488.073 94.2363 486.581 94.2363 485.255 94.0705C486.084 93.7391 486.912 93.4076 487.741 93.2419C489.896 93.7391 491.719 93.7391 493.873 93.2419C494.868 93.9048 496.194 93.9048 497.519 94.2363C494.702 94.402 492.05 94.2363 489.398 94.2363ZM623.313 95.7279C623.313 95.8936 623.313 95.8936 623.313 95.7279H623.644C623.644 95.7279 623.478 95.7279 623.313 95.7279ZM627.456 94.7335C627.29 94.7335 627.29 94.7335 627.456 94.7335C627.456 94.5677 628.119 94.0705 628.285 94.2363C628.285 94.2363 627.787 94.7335 627.456 94.7335ZM664.249 95.5621C665.907 95.3964 667.73 95.2307 669.387 95.2307C670.216 95.2307 670.879 95.3964 671.542 95.5621C669.221 95.3964 666.735 95.5621 664.249 95.5621ZM677.508 95.3964C675.851 95.3964 674.193 95.3964 672.37 95.3964C672.039 95.2307 671.542 95.065 671.707 95.065C672.039 95.065 678.502 95.7279 677.342 94.8992C678.171 94.8992 678.834 95.065 679.497 95.065C679.165 95.2307 678.502 95.2307 677.508 95.3964ZM706.843 93.2419C706.843 93.2419 706.843 93.0761 706.843 93.2419C706.843 93.0761 706.843 93.2419 706.843 93.2419ZM707.838 92.9104C707.672 92.7446 708.666 92.5789 708.998 92.5789C709.329 92.5789 710.489 92.7446 710.987 92.7446C710.158 92.9104 708.501 93.2418 707.838 92.9104ZM994.891 83.9607C994.725 83.9607 995.057 83.9607 995.223 83.9607C995.388 83.9607 996.549 83.9607 996.549 83.9607C996.549 83.9607 995.057 83.9607 994.891 83.9607ZM1017.1 83.7949C1017.1 83.7949 1016.93 83.7949 1016.6 83.7949C1014.61 83.7949 1011.3 84.1264 1008.81 84.1264C1008.32 84.1264 1007.49 83.9607 1006.82 83.9607C1010.47 83.7949 1013.79 83.6292 1017.43 83.4635C1022.24 83.2978 1027.54 83.132 1032.51 83.132C1032.68 83.132 1032.68 83.132 1032.68 83.2977C1027.54 83.2977 1022.24 83.4635 1017.1 83.7949ZM1037.98 83.4635C1037.98 83.4635 1037.82 83.4635 1037.98 83.4635C1037.65 83.4635 1036.82 83.4635 1036.49 83.4635C1036.33 83.4635 1036.49 83.4635 1036.33 83.4635C1035.99 83.4635 1034.83 83.2977 1034.5 83.132C1034.17 83.132 1034.5 83.132 1034.34 83.132C1035.5 83.132 1036.99 83.132 1038.15 83.132C1038.48 83.132 1037.98 83.2978 1037.98 83.4635ZM1200.07 64.2382C1199.74 64.5696 1199.74 64.9011 1200.07 65.2326C1196.76 65.2326 1193.61 65.2326 1190.29 65.2326C1186.81 64.0725 1182.84 64.0724 1179.02 63.9067C1178.03 64.0724 1177.37 64.5697 1176.7 65.2326C1176.87 64.5697 1177.86 64.2382 1178.53 63.9067C1179.52 63.9067 1180.68 63.741 1181.67 63.5752C1184.82 63.078 1187.97 63.4095 1191.12 63.2438C1191.62 63.2438 1191.95 63.2437 1192.45 63.078C1193.11 63.078 1193.77 62.9123 1194.27 62.9123C1194.93 63.078 1195.93 63.078 1196.92 63.078C1197.25 63.078 1197.75 63.078 1198.08 63.078C1198.58 63.078 1199.24 63.078 1199.74 63.078C1199.91 63.078 1200.07 63.078 1200.24 63.078C1200.57 63.4095 1200.4 63.741 1200.07 64.2382ZM1201.73 62.5808C1201.89 62.5808 1201.89 62.5808 1201.73 62.5808V62.5808ZM1260.07 46.0073C1260.07 46.173 1260.07 46.173 1260.07 46.0073C1260.07 46.173 1260.07 46.173 1260.07 46.0073ZM1261.39 44.5157C1260.57 44.5157 1259.74 44.5157 1258.91 44.5157L1261.73 44.3499C1261.56 44.5157 1261.56 44.5157 1261.39 44.5157ZM1248.47 29.4338C1248.47 29.4338 1248.63 29.4338 1248.47 29.4338C1248.63 29.4338 1248.63 29.4338 1248.47 29.4338ZM1346.08 -28.9051C1343.76 -28.9051 1341.44 -28.9051 1339.29 -28.9051C1323.38 -29.0708 1307.3 -29.2366 1291.39 -29.2366C1292.22 -29.2366 1292.88 -29.4023 1293.71 -29.4023C1294.38 -29.4023 1295.87 -29.5681 1294.87 -29.7338C1293.21 -29.7338 1292.22 -29.568 1290.56 -29.568C1286.25 -29.7338 1285.92 -29.7338 1286.25 -29.4023C1286.42 -29.4023 1286.75 -29.2366 1286.59 -29.2366C1285.59 -29.2366 1284.6 -29.2366 1283.77 -29.2366C1281.45 -29.4023 1280.12 -29.5681 1279.29 -29.7338C1279.62 -29.8995 1281.45 -29.8995 1283.44 -29.8995C1285.76 -29.8995 1288.08 -29.8995 1289.07 -30.231C1289.4 -30.231 1289.9 -30.3967 1288.91 -30.3967C1287.91 -30.3967 1287.08 -30.3967 1286.59 -30.3967C1285.26 -30.231 1283.77 -30.231 1282.11 -30.3967C1282.94 -30.3967 1283.77 -30.5625 1284.6 -30.5625C1284.76 -30.5625 1284.76 -30.5625 1284.6 -30.5625C1285.26 -30.7282 1286.92 -30.8939 1285.59 -31.0597C1290.73 -31.0597 1295.87 -31.2254 1301 -31.5569C1302 -31.3912 1302.83 -31.3911 1303.82 -31.2254C1304.32 -31.2254 1304.98 -31.3912 1305.31 -31.5569C1305.81 -31.7226 1306.31 -32.0541 1306.64 -32.2198C1308.13 -32.2198 1309.62 -32.2198 1311.11 -32.2198C1311.78 -32.2198 1312.44 -32.2198 1312.94 -32.2198C1313.43 -31.8883 1313.93 -31.5569 1314.59 -31.0597C1317.74 -32.3855 1321.06 -33.2142 1324.87 -32.717C1325.37 -32.717 1326.2 -32.717 1326.53 -32.5513C1331.17 -30.3967 1335.48 -30.231 1340.62 -32.0541C1342.94 -32.717 1347.74 -32.717 1346.08 -28.9051Z" fill="#611FF2"/>
</svg>
