<svg width="208" height="64" viewBox="0 0 208 64" fill="none" xmlns="http://www.w3.org/2000/svg">
<path fill-rule="evenodd" clip-rule="evenodd" d="M71.7877 3.20211L73.9948 9.91544L76.2063 3.1889C76.345 2.77335 76.6425 2.01534 77.3327 1.37228C78.1233 0.635669 79.0926 0.350256 80.0001 0.350256H105.838C106.704 0.350256 108.053 0.627552 108.951 1.86791C108.958 1.87845 108.966 1.889 108.973 1.89956C109.091 1.74167 109.216 1.5997 109.341 1.47473C109.91 0.905621 110.831 0.349863 112.004 0.349863H138.018C139.19 0.349863 140.112 0.905608 140.681 1.47472C141.25 2.04392 141.806 2.96569 141.806 4.13824V60.0655C141.806 62.3855 139.872 63.8544 138.018 63.8544H112.004C110.149 63.8544 108.215 62.3855 108.215 60.0655V8.76732L90.2146 61.2723C89.6166 63.2999 87.6952 63.8547 86.6374 63.8547H61.5102C60.9103 63.8547 60.1713 63.7321 59.4559 63.2926C58.7366 62.8507 58.2992 62.2472 58.0377 61.725L57.9492 61.5483L54.8809 52.6718L51.9323 61.2723C51.3344 63.2999 49.413 63.8547 48.3552 63.8547H23.228C22.6281 63.8547 21.8891 63.7321 21.1736 63.2926C20.4544 62.8507 20.017 62.2472 19.7554 61.7249L19.667 61.5483L0.252229 5.38142C-0.0634433 4.50724 -0.229841 3.12245 0.677785 1.86789C1.57512 0.627549 2.9242 0.350257 3.78991 0.350257H29.7073C30.6148 0.350257 31.5841 0.635665 32.3747 1.37227C33.0648 2.01533 33.3623 2.77336 33.5011 3.18892L33.5055 3.2021L35.7126 9.91544L37.924 3.18892C38.0628 2.77335 38.3603 2.01533 39.0505 1.37226C39.8411 0.635664 40.8104 0.350257 41.7178 0.350257L67.9895 0.350256C68.897 0.350256 69.8663 0.635669 70.6569 1.37228C71.3471 2.01534 71.6445 2.77336 71.7833 3.18891L71.7877 3.20211ZM35.7126 19.5209L30.6555 4.13907C30.4975 3.66578 30.2604 3.35026 29.7073 3.35026H3.78991C3.15778 3.35026 2.84171 3.74466 3.07876 4.37571L22.4378 60.3815C22.5958 60.697 22.8329 60.8547 23.228 60.8547H48.3552C48.6713 60.8547 48.9873 60.697 49.0664 60.3815L54.8693 43.4553L60.72 60.3815C60.8781 60.697 61.1151 60.8547 61.5102 60.8547H86.6374C86.9535 60.8547 87.2696 60.697 87.3486 60.3815L106.55 4.37571C106.787 3.74466 106.471 3.35026 105.838 3.35026H80.0001C79.4469 3.35026 79.2099 3.66578 79.0519 4.13907L73.9948 19.5209L68.9377 4.13907C68.7797 3.66578 68.5427 3.35026 67.9895 3.35026H41.7178C41.1647 3.35026 40.9277 3.66578 40.7696 4.13907L35.7126 19.5209ZM171.612 60.1141C171.612 60.5142 171.29 60.8344 170.887 60.8344H146.986C146.584 60.8344 146.182 60.5142 146.182 60.1141V4.25101C146.182 3.61075 146.665 3.05051 147.711 3.53071L178.855 17.7766C179.015 17.8566 179.176 17.9367 179.337 17.8566C179.498 17.7766 179.498 17.5365 179.498 17.4565V4.09094C179.498 3.69078 179.82 3.37064 180.223 3.37064H204.124C204.526 3.37064 204.848 3.69078 204.848 4.09094V59.954C204.848 60.5943 204.365 61.1545 203.399 60.6743L172.256 46.2684C172.095 46.1883 171.934 46.1083 171.773 46.1883C171.612 46.2684 171.612 46.5084 171.612 46.5885V60.1141ZM174.612 50.6636V60.1141C174.612 62.1866 172.931 63.8344 170.887 63.8344H146.986C146.018 63.8344 145.133 63.4638 144.475 62.8967C143.809 62.3227 143.182 61.3631 143.182 60.1141V4.25101C143.182 3.26529 143.561 1.8195 144.943 0.939845C146.384 0.0227943 147.937 0.333587 148.962 0.804209L176.498 13.3999V4.09094C176.498 2.01842 178.179 0.370641 180.223 0.370641L204.124 0.370639C206.167 0.370639 207.848 2.01842 207.848 4.09094V59.954C207.848 60.9294 207.478 62.3496 206.144 63.2347C204.713 64.1832 203.154 63.8885 202.111 63.3835L174.612 50.6636ZM138.018 60.8544C138.412 60.8544 138.806 60.5388 138.806 60.0655V4.13824C138.806 3.74383 138.412 3.34986 138.018 3.34986H112.004C111.61 3.34986 111.215 3.74383 111.215 4.13824V60.0655C111.215 60.5388 111.61 60.8544 112.004 60.8544H138.018Z" fill="#0D0E0F"/>
<path d="M29.7073 3.35156C30.2604 3.35156 30.4974 3.66709 30.6555 4.14037L35.7125 19.5223L40.7696 4.14037C40.9276 3.66709 41.1647 3.35156 41.7178 3.35156H67.5562C68.1883 3.35156 68.5044 3.74596 68.2673 4.37701L49.0663 60.3828C48.9873 60.6983 48.6712 60.8561 48.3552 60.8561H23.2279C22.8328 60.8561 22.5958 60.6983 22.4377 60.3828L3.0787 4.37701C2.84165 3.74596 3.15772 3.35156 3.78985 3.35156H29.7073Z" fill="url(#paint0_linear_2468_8880)"/>
<path d="M67.9895 3.35156C68.5426 3.35156 68.7797 3.66709 68.9377 4.14037L73.9947 19.5223L79.0518 4.14037C79.2098 3.66709 79.4469 3.35156 80 3.35156H105.838C106.471 3.35156 106.787 3.74596 106.55 4.37702L87.3485 60.3828C87.2695 60.6983 86.9534 60.8561 86.6374 60.8561H61.5101C61.1151 60.8561 60.878 60.6983 60.72 60.3828L41.3609 4.37702C41.1239 3.74596 41.4399 3.35156 42.0721 3.35156H67.9895Z" fill="url(#paint1_linear_2468_8880)"/>
<path opacity="0.5" d="M67.274 3H41.7899C41.1577 3 40.8417 3.39441 41.0787 4.02545L54.587 43.1051L67.9851 4.02545C68.2222 3.39441 67.9061 3 67.274 3Z" fill="url(#paint2_linear_2468_8880)"/>
<path opacity="0.9" d="M138.018 60.8541C138.412 60.8541 138.806 60.5386 138.806 60.0653V4.13799C138.806 3.74358 138.412 3.34961 138.018 3.34961H112.004C111.609 3.34961 111.215 3.74358 111.215 4.13799V60.0653C111.215 60.5386 111.609 60.8541 112.004 60.8541H138.018Z" fill="url(#paint3_linear_2468_8880)"/>
<path d="M204.848 4.09225C204.848 3.69208 204.526 3.37194 204.124 3.37194H180.223C179.82 3.37194 179.498 3.69208 179.498 4.09225V17.4578C179.498 17.5378 179.498 17.7779 179.337 17.8579C179.176 17.938 179.015 17.8579 178.854 17.7779L147.711 3.53201C146.664 3.05181 146.182 3.61205 146.182 4.25231V60.1154C146.182 60.5156 146.584 60.8357 146.986 60.8357H170.887C171.29 60.8357 171.612 60.5156 171.612 60.1154V46.5898C171.612 46.5098 171.612 46.2697 171.773 46.1896C171.934 46.1096 172.095 46.1896 172.256 46.2697L203.399 60.6756C204.365 61.1558 204.848 60.5956 204.848 59.9553V4.09225Z" fill="url(#paint4_linear_2468_8880)"/>
<path opacity="0.35" d="M167.583 12.6942L147.711 3.53006C146.664 3.04986 146.182 3.61009 146.182 4.25036V60.4716C146.182 60.8717 155.124 60.9237 155.526 60.9237L160.801 39.974L167.583 12.6942Z" fill="url(#paint5_linear_2468_8880)"/>
<path d="M121.916 27.1636L129.151 3.35031C120.4 2.56193 130.449 3.35063 130.055 3.35063H112.004C111.609 3.35063 111.215 3.74459 111.215 4.139V60.0663C111.215 60.5396 111.609 60.8551 112.004 60.8551L121.916 27.1636Z" fill="url(#paint6_linear_2468_8880)"/>
<path opacity="0.4" d="M29.7339 3.34965C30.2876 3.34965 30.5249 3.66391 30.6831 4.13528L35.7452 19.4551L40.8073 4.13528C40.9655 3.66391 41.2028 3.34965 41.7565 3.34965H54.0932C54.3304 2.72114 54.7259 3.34965 54.0932 3.34965L32.5406 60.6222H23.2481C22.8526 60.6222 22.6154 60.4651 22.4572 60.1509L3.07878 4.37097C2.8415 3.74246 3.15788 3.34965 3.79064 3.34965H29.7339Z" fill="url(#paint7_linear_2468_8880)"/>
<path d="M126.588 60.6221L138.645 18.7227V38.3159L132.014 60.6221H126.588Z" fill="url(#paint8_linear_2468_8880)"/>
<path d="M196.069 3.34961L184.916 52.0313L204.66 60.7729V3.34961H196.069Z" fill="url(#paint9_linear_2468_8880)"/>
<defs>
<linearGradient id="paint0_linear_2468_8880" x1="3" y1="32.1038" x2="68.346" y2="32.1038" gradientUnits="userSpaceOnUse">
<stop stop-color="#0EB7FF"/>
<stop offset="1" stop-color="#27E47C"/>
</linearGradient>
<linearGradient id="paint1_linear_2468_8880" x1="41.2822" y1="32.1038" x2="106.629" y2="32.1038" gradientUnits="userSpaceOnUse">
<stop stop-color="#26E47E"/>
<stop offset="1" stop-color="#69F226"/>
</linearGradient>
<linearGradient id="paint2_linear_2468_8880" x1="63.7836" y1="22.9716" x2="44.2459" y2="22.9716" gradientUnits="userSpaceOnUse">
<stop stop-color="#13C67C"/>
<stop offset="1" stop-color="#18FC9C"/>
</linearGradient>
<linearGradient id="paint3_linear_2468_8880" x1="111.215" y1="31.9859" x2="138.947" y2="31.9859" gradientUnits="userSpaceOnUse">
<stop stop-color="#72E624"/>
<stop offset="1" stop-color="#E86A48"/>
</linearGradient>
<linearGradient id="paint4_linear_2468_8880" x1="146.182" y1="32.1038" x2="204.848" y2="32.1038" gradientUnits="userSpaceOnUse">
<stop offset="0.115508" stop-color="#F14800"/>
<stop offset="0.558242" stop-color="#D21381"/>
<stop offset="1" stop-color="#5D1DD3"/>
</linearGradient>
<linearGradient id="paint5_linear_2468_8880" x1="136" y1="25" x2="163.5" y2="25" gradientUnits="userSpaceOnUse">
<stop stop-color="#E2442A" stop-opacity="0"/>
<stop offset="1" stop-color="#951500"/>
</linearGradient>
<linearGradient id="paint6_linear_2468_8880" x1="128.41" y1="21.5326" x2="116.383" y2="22.6343" gradientUnits="userSpaceOnUse">
<stop stop-color="#A39233"/>
<stop offset="1" stop-color="#78DF26" stop-opacity="0"/>
</linearGradient>
<linearGradient id="paint7_linear_2468_8880" x1="11.8923" y1="60.6221" x2="72.7623" y2="35.9609" gradientUnits="userSpaceOnUse">
<stop stop-color="#00B2A9"/>
<stop offset="1" stop-color="#00BC8C"/>
</linearGradient>
<linearGradient id="paint8_linear_2468_8880" x1="132.682" y1="35.0627" x2="142.269" y2="40.1177" gradientUnits="userSpaceOnUse">
<stop stop-color="#CF6641"/>
<stop offset="1" stop-color="#CF6641" stop-opacity="0"/>
</linearGradient>
<linearGradient id="paint9_linear_2468_8880" x1="192.15" y1="27.4155" x2="195" y2="50" gradientUnits="userSpaceOnUse">
<stop stop-color="#6F1293"/>
<stop offset="1" stop-color="#6F1293" stop-opacity="0"/>
</linearGradient>
</defs>
</svg>
