<svg width="240" height="100" viewBox="0 0 240 100" fill="none" xmlns="http://www.w3.org/2000/svg">
<rect opacity="0.3" width="240" height="100" rx="4" fill="#F58F7F"/>
<path d="M90.1925 65.3198C88.7893 64.468 88 63.2377 88 62.1021C88 60.9664 88 60.3985 88 60.3985L114.924 43.5527C117.818 41.7546 122.554 41.7546 125.361 43.5527L151.934 60.3985C151.934 60.3985 151.934 60.8717 151.934 62.0074C151.934 63.2377 151.233 64.468 149.742 65.3198L125.098 80.6514C122.204 82.4496 117.468 82.4496 114.661 80.6514L90.1925 65.3198Z" fill="url(#paint0_linear)"/>
<path d="M90.1923 63.995C87.2982 62.1969 87.2982 59.2631 90.1923 57.4649L114.924 42.1333C117.818 40.3351 122.554 40.3351 125.361 42.1333L149.829 57.3703C152.723 59.1684 152.723 62.1022 149.829 63.9004L125.185 79.232C122.291 81.0301 117.555 81.0301 114.749 79.232L90.1923 63.995Z" fill="#FCFEE5"/>
<path d="M127.29 69.1055L131.412 71.6608L142.726 64.5628V36.4549C138.253 33.7103 101.681 33.7103 97.2086 36.4549V64.5628L108.61 71.6608L112.907 69.0109C117.38 66.361 122.817 66.361 127.29 69.1055Z" fill="#F79A8B"/>
<path d="M108.697 43.5526L97.2963 36.4546V64.6572L108.697 71.7551V43.5526Z" fill="#FCD8B6"/>
<path d="M131.412 43.5526V71.7551L142.725 64.6572V36.4546L131.412 43.5526Z" fill="#D87399"/>
<path d="M141.059 65.4143V37.4956" stroke="#B24761" stroke-width="0.5" stroke-miterlimit="10" stroke-linecap="round"/>
<path d="M139.13 66.6447V38.7261" stroke="#B24761" stroke-width="0.5" stroke-miterlimit="10" stroke-linecap="round"/>
<path d="M137.2 67.8747V39.9561" stroke="#B24761" stroke-width="0.5" stroke-miterlimit="10" stroke-linecap="round"/>
<path d="M135.271 69.1052V41.1865" stroke="#B24761" stroke-width="0.5" stroke-miterlimit="10" stroke-linecap="round"/>
<path d="M133.341 70.241V42.417" stroke="#B24761" stroke-width="0.5" stroke-miterlimit="10" stroke-linecap="round"/>
<path d="M131.412 71.4714V43.5527" stroke="#B24761" stroke-width="0.5" stroke-miterlimit="10" stroke-linecap="round"/>
<path d="M100.804 66.5503V38.4424" stroke="#F79A8B" stroke-width="0.5" stroke-miterlimit="10" stroke-linecap="round"/>
<path d="M102.822 67.7804V39.7671" stroke="#F79A8B" stroke-width="0.5" stroke-miterlimit="10" stroke-linecap="round"/>
<path d="M104.751 69.0109V40.9976" stroke="#F79A8B" stroke-width="0.5" stroke-miterlimit="10" stroke-linecap="round"/>
<path d="M106.681 70.3356V42.3223" stroke="#F79A8B" stroke-width="0.5" stroke-miterlimit="10" stroke-linecap="round"/>
<path d="M108.698 71.5661L108.61 43.5527" stroke="#F79A8B" stroke-width="0.5" stroke-miterlimit="10" stroke-linecap="round"/>
<path d="M115.45 67.7814V39.7681" stroke="#D67499" stroke-width="0.5" stroke-miterlimit="10" stroke-linecap="round"/>
<path d="M117.205 67.3077V39.2944" stroke="#D67499" stroke-width="0.5" stroke-miterlimit="10" stroke-linecap="round"/>
<path d="M118.958 67.1181V38.9155" stroke="#D67499" stroke-width="0.5" stroke-miterlimit="10" stroke-linecap="round"/>
<path d="M120.625 67.1181V38.9155" stroke="#D67499" stroke-width="0.5" stroke-miterlimit="10" stroke-linecap="round"/>
<path d="M122.378 67.3076V39.105" stroke="#D67499" stroke-width="0.5" stroke-miterlimit="10" stroke-linecap="round"/>
<path d="M124.133 67.6865V39.5786" stroke="#D67499" stroke-width="0.5" stroke-miterlimit="10" stroke-linecap="round"/>
<path d="M97.9102 36.4549L113.082 27.0856C115.187 25.7606 117.643 25.0981 120.099 25.0981C122.554 25.0981 125.01 25.7606 127.115 27.0856L142.112 36.4549L131.412 43.0797L127.465 40.619C125.273 39.1994 122.642 38.537 120.099 38.537C117.555 38.537 115.012 39.2941 112.819 40.619L108.697 43.1743L97.9102 36.4549Z" fill="#FCFEE5"/>
<path d="M120.099 25.4764C122.467 25.4764 124.922 26.1389 126.939 27.4639L141.41 36.4546L131.412 42.7008L127.641 40.3348C125.361 38.9153 122.73 38.1581 120.099 38.1581C117.468 38.1581 114.924 38.9153 112.644 40.3348L108.697 42.7955L98.6118 36.5493L113.258 27.4639C115.363 26.1389 117.731 25.4764 120.099 25.4764ZM120.099 24.814C117.643 24.814 115.187 25.4764 112.907 26.896L97.2963 36.4546L108.697 43.5526L112.995 40.9027C115.187 39.5777 117.643 38.8206 120.186 38.8206C122.642 38.8206 125.185 39.4831 127.378 40.9027L131.5 43.458L142.813 36.36L127.378 26.7068C125.098 25.4764 122.554 24.814 120.099 24.814Z" fill="#F79A8B"/>
<path d="M113.346 30.4927C112.995 30.3034 112.82 29.9249 112.82 29.6409C112.82 29.357 112.82 22.543 112.82 22.543H127.378C127.378 22.543 127.378 29.357 127.378 29.6409C127.378 29.9249 127.203 30.2088 126.852 30.4927L121.502 33.8051C120.8 34.2783 119.573 34.2783 118.783 33.8051L113.346 30.4927Z" fill="url(#paint1_linear)"/>
<path d="M120.011 26.7072C119.573 26.7072 119.134 26.6125 118.783 26.4233L113.434 23.1109C113.171 22.9216 113.083 22.7323 113.083 22.543C113.083 22.3538 113.258 22.1645 113.521 21.9752L118.871 18.6628C119.134 18.4735 119.573 18.3789 120.099 18.3789C120.537 18.3789 120.976 18.4735 121.327 18.6628L126.677 21.9752C126.94 22.1645 127.027 22.3538 127.027 22.543C127.027 22.7323 126.852 22.9216 126.677 23.1109L121.327 26.4233C120.888 26.6125 120.45 26.7072 120.011 26.7072Z" fill="#FCFEE5"/>
<path d="M120.011 18.7571C120.449 18.7571 120.8 18.8518 121.063 19.041L126.413 22.3534C126.589 22.4481 126.676 22.5427 126.676 22.5427C126.676 22.5427 126.589 22.6373 126.413 22.732L121.063 26.0444C120.8 26.2336 120.449 26.3283 120.011 26.3283C119.66 26.3283 119.222 26.2336 118.959 26.0444L113.609 22.732C113.433 22.6373 113.346 22.5427 113.346 22.5427C113.346 22.5427 113.433 22.4481 113.609 22.3534L118.959 19.041C119.309 18.8518 119.66 18.7571 120.011 18.7571ZM120.011 18C119.485 18 119.046 18.0946 118.695 18.3786L113.346 21.6909C112.556 22.1641 112.556 22.9213 113.346 23.3945L118.695 26.7068C119.046 26.8961 119.572 27.0854 120.011 27.0854C120.537 27.0854 120.976 26.9908 121.326 26.7068L126.676 23.3945C127.378 22.9213 127.378 22.1641 126.676 21.6909L121.326 18.3786C121.063 18.1893 120.537 18 120.011 18Z" fill="#F79A8B"/>
<path d="M116.591 22.8268V21.8804H123.432V22.8268L120.011 25.0035L116.591 22.8268Z" fill="#FCD8B6"/>
<path d="M120.011 24.0571L123.431 21.8804V22.8268L120.011 25.0035V24.0571Z" fill="#D87399"/>
<path d="M116.591 21.8804L120.011 19.7983L123.432 21.8804L120.011 24.0571L116.591 21.8804Z" fill="#FCFEE5"/>
<path d="M104.575 36.6441L107.996 34.562L111.416 36.6441L107.996 38.8208L104.575 36.6441Z" fill="#F79A8B"/>
<path d="M130.272 36.6441L133.692 34.562L137.113 36.6441L133.692 38.8208L130.272 36.6441Z" fill="#F79A8B"/>
<path d="M124.572 70.1467C124.572 72.5127 122.818 74.4055 120.625 74.4055C118.432 74.4055 116.678 72.5127 116.678 70.1467C116.678 66.1718 119.134 63.9951 120.625 63.9951C122.116 63.9951 124.572 66.4557 124.572 70.1467Z" fill="url(#paint2_linear)"/>
<defs>
<linearGradient id="paint0_linear" x1="88.008" y1="62.1443" x2="152.03" y2="62.1443" gradientUnits="userSpaceOnUse">
<stop offset="0.4719" stop-color="#F79A8B"/>
<stop offset="0.5034" stop-color="#E98A91"/>
<stop offset="0.5493" stop-color="#DB7A97"/>
<stop offset="0.5842" stop-color="#D67499"/>
</linearGradient>
<linearGradient id="paint1_linear" x1="112.751" y1="28.3566" x2="127.287" y2="28.3566" gradientUnits="userSpaceOnUse">
<stop stop-color="#FCD8B6"/>
<stop offset="0.4705" stop-color="#FCD8B6"/>
<stop offset="0.4794" stop-color="#FCD8B6"/>
<stop offset="0.4941" stop-color="#F6C9B2"/>
<stop offset="0.5286" stop-color="#EBAAA9"/>
<stop offset="0.5648" stop-color="#E192A2"/>
<stop offset="0.6031" stop-color="#DB819D"/>
<stop offset="0.645" stop-color="#D7779A"/>
<stop offset="0.6968" stop-color="#D67499"/>
</linearGradient>
<linearGradient id="paint2_linear" x1="117.528" y1="66.1239" x2="124.205" y2="72.3108" gradientUnits="userSpaceOnUse">
<stop offset="0.0891089" stop-color="#CEE3CD"/>
<stop offset="0.2093" stop-color="#B0D2BD"/>
<stop offset="0.3747" stop-color="#8DBDAB"/>
<stop offset="0.5101" stop-color="#77B1A0"/>
<stop offset="0.5977" stop-color="#6FAC9C"/>
<stop offset="0.7432" stop-color="#56A197"/>
<stop offset="0.8969" stop-color="#419793"/>
<stop offset="1" stop-color="#3A9492"/>
</linearGradient>
</defs>
</svg>
